G04 MADE WITH FRITZING*
G04 WWW.FRITZING.ORG*
G04 DOUBLE SIDED*
G04 HOLES PLATED*
G04 CONTOUR ON CENTER OF CONTOUR VECTOR*
%ASAXBY*%
%FSLAX23Y23*%
%MOIN*%
%OFA0B0*%
%SFA1.0B1.0*%
%ADD10C,0.010000*%
%ADD11C,0.005000*%
%ADD12C,0.008000*%
%ADD13R,0.001000X0.001000*%
%LNSILK1*%
G90*
G70*
G54D10*
X436Y130D02*
X236Y130D01*
D02*
X236Y130D02*
X236Y30D01*
D02*
X436Y30D02*
X436Y130D01*
G54D11*
D02*
X401Y130D02*
X436Y95D01*
G54D12*
D02*
X305Y494D02*
X305Y156D01*
D02*
X320Y145D02*
X443Y145D01*
D02*
X438Y509D02*
X405Y509D01*
D02*
X316Y509D02*
X355Y509D01*
G54D13*
X0Y551D02*
X667Y551D01*
X0Y550D02*
X667Y550D01*
X0Y549D02*
X667Y549D01*
X0Y548D02*
X667Y548D01*
X0Y547D02*
X667Y547D01*
X0Y546D02*
X667Y546D01*
X0Y545D02*
X667Y545D01*
X0Y544D02*
X667Y544D01*
X0Y543D02*
X7Y543D01*
X660Y543D02*
X667Y543D01*
X0Y542D02*
X7Y542D01*
X660Y542D02*
X667Y542D01*
X0Y541D02*
X7Y541D01*
X660Y541D02*
X667Y541D01*
X0Y540D02*
X7Y540D01*
X660Y540D02*
X667Y540D01*
X0Y539D02*
X7Y539D01*
X660Y539D02*
X667Y539D01*
X0Y538D02*
X7Y538D01*
X660Y538D02*
X667Y538D01*
X0Y537D02*
X7Y537D01*
X660Y537D02*
X667Y537D01*
X0Y536D02*
X7Y536D01*
X660Y536D02*
X667Y536D01*
X0Y535D02*
X7Y535D01*
X660Y535D02*
X667Y535D01*
X0Y534D02*
X7Y534D01*
X660Y534D02*
X667Y534D01*
X0Y533D02*
X7Y533D01*
X660Y533D02*
X667Y533D01*
X0Y532D02*
X7Y532D01*
X660Y532D02*
X667Y532D01*
X0Y531D02*
X7Y531D01*
X660Y531D02*
X667Y531D01*
X0Y530D02*
X7Y530D01*
X660Y530D02*
X667Y530D01*
X0Y529D02*
X7Y529D01*
X660Y529D02*
X667Y529D01*
X0Y528D02*
X7Y528D01*
X660Y528D02*
X667Y528D01*
X0Y527D02*
X7Y527D01*
X660Y527D02*
X667Y527D01*
X0Y526D02*
X7Y526D01*
X660Y526D02*
X667Y526D01*
X0Y525D02*
X7Y525D01*
X660Y525D02*
X667Y525D01*
X0Y524D02*
X7Y524D01*
X660Y524D02*
X667Y524D01*
X0Y523D02*
X7Y523D01*
X660Y523D02*
X667Y523D01*
X0Y522D02*
X7Y522D01*
X660Y522D02*
X667Y522D01*
X0Y521D02*
X7Y521D01*
X660Y521D02*
X667Y521D01*
X0Y520D02*
X7Y520D01*
X660Y520D02*
X667Y520D01*
X0Y519D02*
X7Y519D01*
X660Y519D02*
X667Y519D01*
X0Y518D02*
X7Y518D01*
X660Y518D02*
X667Y518D01*
X0Y517D02*
X7Y517D01*
X660Y517D02*
X667Y517D01*
X0Y516D02*
X7Y516D01*
X660Y516D02*
X667Y516D01*
X0Y515D02*
X7Y515D01*
X660Y515D02*
X667Y515D01*
X0Y514D02*
X7Y514D01*
X660Y514D02*
X667Y514D01*
X0Y513D02*
X7Y513D01*
X312Y513D02*
X314Y513D01*
X438Y513D02*
X445Y513D01*
X660Y513D02*
X667Y513D01*
X0Y512D02*
X7Y512D01*
X310Y512D02*
X314Y512D01*
X438Y512D02*
X448Y512D01*
X660Y512D02*
X667Y512D01*
X0Y511D02*
X7Y511D01*
X308Y511D02*
X314Y511D01*
X439Y511D02*
X450Y511D01*
X660Y511D02*
X667Y511D01*
X0Y510D02*
X7Y510D01*
X307Y510D02*
X314Y510D01*
X439Y510D02*
X451Y510D01*
X660Y510D02*
X667Y510D01*
X0Y509D02*
X7Y509D01*
X306Y509D02*
X315Y509D01*
X439Y509D02*
X453Y509D01*
X660Y509D02*
X667Y509D01*
X0Y508D02*
X7Y508D01*
X305Y508D02*
X315Y508D01*
X439Y508D02*
X454Y508D01*
X660Y508D02*
X667Y508D01*
X0Y507D02*
X7Y507D01*
X304Y507D02*
X315Y507D01*
X351Y507D02*
X358Y507D01*
X401Y507D02*
X408Y507D01*
X439Y507D02*
X455Y507D01*
X660Y507D02*
X667Y507D01*
X0Y506D02*
X7Y506D01*
X303Y506D02*
X315Y506D01*
X351Y506D02*
X358Y506D01*
X401Y506D02*
X408Y506D01*
X439Y506D02*
X456Y506D01*
X660Y506D02*
X667Y506D01*
X0Y505D02*
X7Y505D01*
X303Y505D02*
X312Y505D01*
X351Y505D02*
X358Y505D01*
X401Y505D02*
X408Y505D01*
X446Y505D02*
X456Y505D01*
X660Y505D02*
X667Y505D01*
X0Y504D02*
X7Y504D01*
X302Y504D02*
X311Y504D01*
X351Y504D02*
X358Y504D01*
X401Y504D02*
X408Y504D01*
X448Y504D02*
X457Y504D01*
X660Y504D02*
X667Y504D01*
X0Y503D02*
X7Y503D01*
X302Y503D02*
X309Y503D01*
X351Y503D02*
X358Y503D01*
X401Y503D02*
X408Y503D01*
X449Y503D02*
X458Y503D01*
X660Y503D02*
X667Y503D01*
X0Y502D02*
X7Y502D01*
X301Y502D02*
X309Y502D01*
X352Y502D02*
X359Y502D01*
X400Y502D02*
X407Y502D01*
X450Y502D02*
X458Y502D01*
X660Y502D02*
X667Y502D01*
X0Y501D02*
X7Y501D01*
X301Y501D02*
X308Y501D01*
X352Y501D02*
X359Y501D01*
X400Y501D02*
X407Y501D01*
X451Y501D02*
X459Y501D01*
X660Y501D02*
X667Y501D01*
X0Y500D02*
X7Y500D01*
X301Y500D02*
X308Y500D01*
X352Y500D02*
X359Y500D01*
X400Y500D02*
X407Y500D01*
X452Y500D02*
X459Y500D01*
X660Y500D02*
X667Y500D01*
X0Y499D02*
X7Y499D01*
X301Y499D02*
X307Y499D01*
X352Y499D02*
X360Y499D01*
X399Y499D02*
X407Y499D01*
X452Y499D02*
X460Y499D01*
X660Y499D02*
X667Y499D01*
X0Y498D02*
X7Y498D01*
X300Y498D02*
X307Y498D01*
X353Y498D02*
X360Y498D01*
X399Y498D02*
X406Y498D01*
X453Y498D02*
X460Y498D01*
X660Y498D02*
X667Y498D01*
X0Y497D02*
X7Y497D01*
X300Y497D02*
X307Y497D01*
X353Y497D02*
X361Y497D01*
X398Y497D02*
X406Y497D01*
X453Y497D02*
X460Y497D01*
X660Y497D02*
X667Y497D01*
X0Y496D02*
X7Y496D01*
X300Y496D02*
X307Y496D01*
X354Y496D02*
X361Y496D01*
X398Y496D02*
X405Y496D01*
X453Y496D02*
X460Y496D01*
X660Y496D02*
X667Y496D01*
X0Y495D02*
X7Y495D01*
X31Y495D02*
X62Y495D01*
X300Y495D02*
X305Y495D01*
X354Y495D02*
X362Y495D01*
X397Y495D02*
X405Y495D01*
X454Y495D02*
X461Y495D01*
X660Y495D02*
X667Y495D01*
X0Y494D02*
X7Y494D01*
X30Y494D02*
X63Y494D01*
X355Y494D02*
X363Y494D01*
X396Y494D02*
X404Y494D01*
X454Y494D02*
X461Y494D01*
X660Y494D02*
X667Y494D01*
X0Y493D02*
X7Y493D01*
X30Y493D02*
X63Y493D01*
X355Y493D02*
X364Y493D01*
X395Y493D02*
X404Y493D01*
X454Y493D02*
X461Y493D01*
X660Y493D02*
X667Y493D01*
X0Y492D02*
X7Y492D01*
X29Y492D02*
X63Y492D01*
X356Y492D02*
X365Y492D01*
X394Y492D02*
X403Y492D01*
X454Y492D02*
X461Y492D01*
X660Y492D02*
X667Y492D01*
X0Y491D02*
X7Y491D01*
X29Y491D02*
X63Y491D01*
X357Y491D02*
X366Y491D01*
X393Y491D02*
X402Y491D01*
X454Y491D02*
X461Y491D01*
X660Y491D02*
X667Y491D01*
X0Y490D02*
X7Y490D01*
X29Y490D02*
X63Y490D01*
X357Y490D02*
X367Y490D01*
X392Y490D02*
X402Y490D01*
X454Y490D02*
X461Y490D01*
X660Y490D02*
X667Y490D01*
X0Y489D02*
X7Y489D01*
X29Y489D02*
X63Y489D01*
X358Y489D02*
X369Y489D01*
X390Y489D02*
X401Y489D01*
X454Y489D02*
X461Y489D01*
X660Y489D02*
X667Y489D01*
X0Y488D02*
X7Y488D01*
X30Y488D02*
X63Y488D01*
X359Y488D02*
X371Y488D01*
X388Y488D02*
X400Y488D01*
X454Y488D02*
X461Y488D01*
X660Y488D02*
X667Y488D01*
X0Y487D02*
X7Y487D01*
X30Y487D02*
X62Y487D01*
X360Y487D02*
X375Y487D01*
X384Y487D02*
X399Y487D01*
X454Y487D02*
X461Y487D01*
X660Y487D02*
X667Y487D01*
X0Y486D02*
X7Y486D01*
X32Y486D02*
X61Y486D01*
X361Y486D02*
X398Y486D01*
X454Y486D02*
X461Y486D01*
X660Y486D02*
X667Y486D01*
X0Y485D02*
X7Y485D01*
X362Y485D02*
X397Y485D01*
X454Y485D02*
X461Y485D01*
X660Y485D02*
X667Y485D01*
X0Y484D02*
X7Y484D01*
X364Y484D02*
X395Y484D01*
X454Y484D02*
X461Y484D01*
X660Y484D02*
X667Y484D01*
X0Y483D02*
X7Y483D01*
X365Y483D02*
X394Y483D01*
X454Y483D02*
X461Y483D01*
X660Y483D02*
X667Y483D01*
X0Y482D02*
X7Y482D01*
X367Y482D02*
X392Y482D01*
X454Y482D02*
X461Y482D01*
X660Y482D02*
X667Y482D01*
X0Y481D02*
X7Y481D01*
X369Y481D02*
X390Y481D01*
X454Y481D02*
X461Y481D01*
X660Y481D02*
X667Y481D01*
X0Y480D02*
X7Y480D01*
X372Y480D02*
X387Y480D01*
X454Y480D02*
X461Y480D01*
X660Y480D02*
X667Y480D01*
X0Y479D02*
X7Y479D01*
X376Y479D02*
X383Y479D01*
X454Y479D02*
X461Y479D01*
X660Y479D02*
X667Y479D01*
X0Y478D02*
X7Y478D01*
X454Y478D02*
X461Y478D01*
X660Y478D02*
X667Y478D01*
X0Y477D02*
X7Y477D01*
X454Y477D02*
X461Y477D01*
X660Y477D02*
X667Y477D01*
X0Y476D02*
X7Y476D01*
X454Y476D02*
X461Y476D01*
X660Y476D02*
X667Y476D01*
X0Y475D02*
X7Y475D01*
X454Y475D02*
X461Y475D01*
X660Y475D02*
X667Y475D01*
X0Y474D02*
X7Y474D01*
X454Y474D02*
X461Y474D01*
X660Y474D02*
X667Y474D01*
X0Y473D02*
X7Y473D01*
X454Y473D02*
X461Y473D01*
X660Y473D02*
X667Y473D01*
X0Y472D02*
X7Y472D01*
X454Y472D02*
X461Y472D01*
X660Y472D02*
X667Y472D01*
X0Y471D02*
X7Y471D01*
X454Y471D02*
X461Y471D01*
X660Y471D02*
X667Y471D01*
X0Y470D02*
X7Y470D01*
X454Y470D02*
X461Y470D01*
X660Y470D02*
X667Y470D01*
X0Y469D02*
X7Y469D01*
X454Y469D02*
X461Y469D01*
X660Y469D02*
X667Y469D01*
X0Y468D02*
X7Y468D01*
X454Y468D02*
X461Y468D01*
X660Y468D02*
X667Y468D01*
X0Y467D02*
X7Y467D01*
X454Y467D02*
X461Y467D01*
X660Y467D02*
X667Y467D01*
X0Y466D02*
X7Y466D01*
X454Y466D02*
X461Y466D01*
X660Y466D02*
X667Y466D01*
X0Y465D02*
X7Y465D01*
X454Y465D02*
X461Y465D01*
X660Y465D02*
X667Y465D01*
X0Y464D02*
X7Y464D01*
X454Y464D02*
X461Y464D01*
X660Y464D02*
X667Y464D01*
X0Y463D02*
X7Y463D01*
X454Y463D02*
X461Y463D01*
X660Y463D02*
X667Y463D01*
X0Y462D02*
X7Y462D01*
X454Y462D02*
X461Y462D01*
X660Y462D02*
X667Y462D01*
X0Y461D02*
X7Y461D01*
X454Y461D02*
X461Y461D01*
X660Y461D02*
X667Y461D01*
X0Y460D02*
X7Y460D01*
X454Y460D02*
X461Y460D01*
X660Y460D02*
X667Y460D01*
X0Y459D02*
X7Y459D01*
X454Y459D02*
X461Y459D01*
X660Y459D02*
X667Y459D01*
X0Y458D02*
X7Y458D01*
X454Y458D02*
X461Y458D01*
X660Y458D02*
X667Y458D01*
X0Y457D02*
X7Y457D01*
X454Y457D02*
X461Y457D01*
X660Y457D02*
X667Y457D01*
X0Y456D02*
X7Y456D01*
X454Y456D02*
X461Y456D01*
X660Y456D02*
X667Y456D01*
X0Y455D02*
X7Y455D01*
X454Y455D02*
X461Y455D01*
X660Y455D02*
X667Y455D01*
X0Y454D02*
X7Y454D01*
X454Y454D02*
X461Y454D01*
X660Y454D02*
X667Y454D01*
X0Y453D02*
X7Y453D01*
X454Y453D02*
X461Y453D01*
X660Y453D02*
X667Y453D01*
X0Y452D02*
X7Y452D01*
X454Y452D02*
X461Y452D01*
X660Y452D02*
X667Y452D01*
X0Y451D02*
X7Y451D01*
X454Y451D02*
X461Y451D01*
X660Y451D02*
X667Y451D01*
X0Y450D02*
X7Y450D01*
X454Y450D02*
X461Y450D01*
X660Y450D02*
X667Y450D01*
X0Y449D02*
X7Y449D01*
X454Y449D02*
X461Y449D01*
X660Y449D02*
X667Y449D01*
X0Y448D02*
X7Y448D01*
X454Y448D02*
X461Y448D01*
X660Y448D02*
X667Y448D01*
X0Y447D02*
X7Y447D01*
X454Y447D02*
X461Y447D01*
X660Y447D02*
X667Y447D01*
X0Y446D02*
X7Y446D01*
X454Y446D02*
X461Y446D01*
X660Y446D02*
X667Y446D01*
X0Y445D02*
X7Y445D01*
X454Y445D02*
X461Y445D01*
X660Y445D02*
X667Y445D01*
X0Y444D02*
X7Y444D01*
X454Y444D02*
X461Y444D01*
X660Y444D02*
X667Y444D01*
X0Y443D02*
X7Y443D01*
X454Y443D02*
X461Y443D01*
X660Y443D02*
X667Y443D01*
X0Y442D02*
X7Y442D01*
X454Y442D02*
X461Y442D01*
X660Y442D02*
X667Y442D01*
X0Y441D02*
X7Y441D01*
X454Y441D02*
X461Y441D01*
X660Y441D02*
X667Y441D01*
X0Y440D02*
X7Y440D01*
X454Y440D02*
X461Y440D01*
X660Y440D02*
X667Y440D01*
X0Y439D02*
X7Y439D01*
X454Y439D02*
X461Y439D01*
X660Y439D02*
X667Y439D01*
X0Y438D02*
X7Y438D01*
X454Y438D02*
X461Y438D01*
X660Y438D02*
X667Y438D01*
X0Y437D02*
X7Y437D01*
X454Y437D02*
X461Y437D01*
X660Y437D02*
X667Y437D01*
X0Y436D02*
X7Y436D01*
X454Y436D02*
X461Y436D01*
X660Y436D02*
X667Y436D01*
X0Y435D02*
X7Y435D01*
X95Y435D02*
X98Y435D01*
X454Y435D02*
X461Y435D01*
X660Y435D02*
X667Y435D01*
X0Y434D02*
X7Y434D01*
X94Y434D02*
X99Y434D01*
X454Y434D02*
X461Y434D01*
X660Y434D02*
X667Y434D01*
X0Y433D02*
X7Y433D01*
X94Y433D02*
X99Y433D01*
X454Y433D02*
X461Y433D01*
X660Y433D02*
X667Y433D01*
X0Y432D02*
X7Y432D01*
X94Y432D02*
X100Y432D01*
X454Y432D02*
X461Y432D01*
X660Y432D02*
X667Y432D01*
X0Y431D02*
X7Y431D01*
X94Y431D02*
X100Y431D01*
X454Y431D02*
X461Y431D01*
X660Y431D02*
X667Y431D01*
X0Y430D02*
X7Y430D01*
X94Y430D02*
X100Y430D01*
X454Y430D02*
X461Y430D01*
X660Y430D02*
X667Y430D01*
X0Y429D02*
X7Y429D01*
X94Y429D02*
X100Y429D01*
X454Y429D02*
X461Y429D01*
X660Y429D02*
X667Y429D01*
X0Y428D02*
X7Y428D01*
X94Y428D02*
X100Y428D01*
X454Y428D02*
X461Y428D01*
X660Y428D02*
X667Y428D01*
X0Y427D02*
X7Y427D01*
X94Y427D02*
X100Y427D01*
X454Y427D02*
X461Y427D01*
X660Y427D02*
X667Y427D01*
X0Y426D02*
X7Y426D01*
X94Y426D02*
X100Y426D01*
X454Y426D02*
X461Y426D01*
X660Y426D02*
X667Y426D01*
X0Y425D02*
X7Y425D01*
X94Y425D02*
X100Y425D01*
X454Y425D02*
X461Y425D01*
X660Y425D02*
X667Y425D01*
X0Y424D02*
X7Y424D01*
X94Y424D02*
X100Y424D01*
X454Y424D02*
X461Y424D01*
X660Y424D02*
X667Y424D01*
X0Y423D02*
X7Y423D01*
X94Y423D02*
X100Y423D01*
X454Y423D02*
X461Y423D01*
X660Y423D02*
X667Y423D01*
X0Y422D02*
X7Y422D01*
X93Y422D02*
X100Y422D01*
X454Y422D02*
X461Y422D01*
X660Y422D02*
X667Y422D01*
X0Y421D02*
X7Y421D01*
X81Y421D02*
X112Y421D01*
X454Y421D02*
X461Y421D01*
X660Y421D02*
X667Y421D01*
X0Y420D02*
X7Y420D01*
X80Y420D02*
X113Y420D01*
X454Y420D02*
X461Y420D01*
X660Y420D02*
X667Y420D01*
X0Y419D02*
X7Y419D01*
X80Y419D02*
X113Y419D01*
X454Y419D02*
X461Y419D01*
X660Y419D02*
X667Y419D01*
X0Y418D02*
X7Y418D01*
X80Y418D02*
X113Y418D01*
X454Y418D02*
X461Y418D01*
X660Y418D02*
X667Y418D01*
X0Y417D02*
X7Y417D01*
X80Y417D02*
X113Y417D01*
X454Y417D02*
X461Y417D01*
X660Y417D02*
X667Y417D01*
X0Y416D02*
X7Y416D01*
X81Y416D02*
X113Y416D01*
X454Y416D02*
X461Y416D01*
X660Y416D02*
X667Y416D01*
X0Y415D02*
X7Y415D01*
X82Y415D02*
X111Y415D01*
X454Y415D02*
X461Y415D01*
X660Y415D02*
X667Y415D01*
X0Y414D02*
X7Y414D01*
X94Y414D02*
X100Y414D01*
X454Y414D02*
X461Y414D01*
X660Y414D02*
X667Y414D01*
X0Y413D02*
X7Y413D01*
X94Y413D02*
X100Y413D01*
X454Y413D02*
X461Y413D01*
X660Y413D02*
X667Y413D01*
X0Y412D02*
X7Y412D01*
X94Y412D02*
X100Y412D01*
X454Y412D02*
X461Y412D01*
X660Y412D02*
X667Y412D01*
X0Y411D02*
X7Y411D01*
X94Y411D02*
X100Y411D01*
X454Y411D02*
X461Y411D01*
X660Y411D02*
X667Y411D01*
X0Y410D02*
X7Y410D01*
X94Y410D02*
X100Y410D01*
X454Y410D02*
X461Y410D01*
X660Y410D02*
X667Y410D01*
X0Y409D02*
X7Y409D01*
X94Y409D02*
X100Y409D01*
X454Y409D02*
X461Y409D01*
X660Y409D02*
X667Y409D01*
X0Y408D02*
X7Y408D01*
X94Y408D02*
X100Y408D01*
X454Y408D02*
X461Y408D01*
X660Y408D02*
X667Y408D01*
X0Y407D02*
X7Y407D01*
X94Y407D02*
X100Y407D01*
X454Y407D02*
X461Y407D01*
X660Y407D02*
X667Y407D01*
X0Y406D02*
X7Y406D01*
X94Y406D02*
X100Y406D01*
X454Y406D02*
X461Y406D01*
X660Y406D02*
X667Y406D01*
X0Y405D02*
X7Y405D01*
X94Y405D02*
X100Y405D01*
X454Y405D02*
X461Y405D01*
X660Y405D02*
X667Y405D01*
X0Y404D02*
X7Y404D01*
X94Y404D02*
X100Y404D01*
X454Y404D02*
X461Y404D01*
X660Y404D02*
X667Y404D01*
X0Y403D02*
X7Y403D01*
X94Y403D02*
X99Y403D01*
X454Y403D02*
X461Y403D01*
X660Y403D02*
X667Y403D01*
X0Y402D02*
X7Y402D01*
X95Y402D02*
X99Y402D01*
X454Y402D02*
X461Y402D01*
X660Y402D02*
X667Y402D01*
X0Y401D02*
X7Y401D01*
X96Y401D02*
X97Y401D01*
X454Y401D02*
X461Y401D01*
X660Y401D02*
X667Y401D01*
X0Y400D02*
X7Y400D01*
X454Y400D02*
X461Y400D01*
X660Y400D02*
X667Y400D01*
X0Y399D02*
X7Y399D01*
X454Y399D02*
X461Y399D01*
X660Y399D02*
X667Y399D01*
X0Y398D02*
X7Y398D01*
X454Y398D02*
X461Y398D01*
X660Y398D02*
X667Y398D01*
X0Y397D02*
X7Y397D01*
X454Y397D02*
X461Y397D01*
X660Y397D02*
X667Y397D01*
X0Y396D02*
X7Y396D01*
X454Y396D02*
X461Y396D01*
X660Y396D02*
X667Y396D01*
X0Y395D02*
X7Y395D01*
X454Y395D02*
X461Y395D01*
X660Y395D02*
X667Y395D01*
X0Y394D02*
X7Y394D01*
X454Y394D02*
X461Y394D01*
X660Y394D02*
X667Y394D01*
X0Y393D02*
X7Y393D01*
X454Y393D02*
X461Y393D01*
X660Y393D02*
X667Y393D01*
X0Y392D02*
X7Y392D01*
X454Y392D02*
X461Y392D01*
X660Y392D02*
X667Y392D01*
X0Y391D02*
X7Y391D01*
X454Y391D02*
X461Y391D01*
X660Y391D02*
X667Y391D01*
X0Y390D02*
X7Y390D01*
X454Y390D02*
X461Y390D01*
X660Y390D02*
X667Y390D01*
X0Y389D02*
X7Y389D01*
X454Y389D02*
X461Y389D01*
X660Y389D02*
X667Y389D01*
X0Y388D02*
X7Y388D01*
X454Y388D02*
X461Y388D01*
X660Y388D02*
X667Y388D01*
X0Y387D02*
X7Y387D01*
X454Y387D02*
X461Y387D01*
X660Y387D02*
X667Y387D01*
X0Y386D02*
X7Y386D01*
X454Y386D02*
X461Y386D01*
X660Y386D02*
X667Y386D01*
X0Y385D02*
X7Y385D01*
X454Y385D02*
X461Y385D01*
X660Y385D02*
X667Y385D01*
X0Y384D02*
X7Y384D01*
X454Y384D02*
X461Y384D01*
X660Y384D02*
X667Y384D01*
X0Y383D02*
X7Y383D01*
X454Y383D02*
X461Y383D01*
X660Y383D02*
X667Y383D01*
X0Y382D02*
X7Y382D01*
X454Y382D02*
X461Y382D01*
X660Y382D02*
X667Y382D01*
X0Y381D02*
X7Y381D01*
X454Y381D02*
X461Y381D01*
X660Y381D02*
X667Y381D01*
X0Y380D02*
X7Y380D01*
X454Y380D02*
X461Y380D01*
X660Y380D02*
X667Y380D01*
X0Y379D02*
X7Y379D01*
X454Y379D02*
X461Y379D01*
X660Y379D02*
X667Y379D01*
X0Y378D02*
X7Y378D01*
X454Y378D02*
X461Y378D01*
X660Y378D02*
X667Y378D01*
X0Y377D02*
X7Y377D01*
X454Y377D02*
X461Y377D01*
X660Y377D02*
X667Y377D01*
X0Y376D02*
X7Y376D01*
X454Y376D02*
X461Y376D01*
X660Y376D02*
X667Y376D01*
X0Y375D02*
X7Y375D01*
X454Y375D02*
X461Y375D01*
X660Y375D02*
X667Y375D01*
X0Y374D02*
X7Y374D01*
X454Y374D02*
X461Y374D01*
X660Y374D02*
X667Y374D01*
X0Y373D02*
X7Y373D01*
X454Y373D02*
X461Y373D01*
X660Y373D02*
X667Y373D01*
X0Y372D02*
X7Y372D01*
X454Y372D02*
X461Y372D01*
X660Y372D02*
X667Y372D01*
X0Y371D02*
X7Y371D01*
X454Y371D02*
X461Y371D01*
X660Y371D02*
X667Y371D01*
X0Y370D02*
X7Y370D01*
X454Y370D02*
X461Y370D01*
X660Y370D02*
X667Y370D01*
X0Y369D02*
X7Y369D01*
X454Y369D02*
X461Y369D01*
X660Y369D02*
X667Y369D01*
X0Y368D02*
X7Y368D01*
X454Y368D02*
X461Y368D01*
X660Y368D02*
X667Y368D01*
X0Y367D02*
X7Y367D01*
X454Y367D02*
X461Y367D01*
X660Y367D02*
X667Y367D01*
X0Y366D02*
X7Y366D01*
X454Y366D02*
X461Y366D01*
X660Y366D02*
X667Y366D01*
X0Y365D02*
X7Y365D01*
X454Y365D02*
X461Y365D01*
X660Y365D02*
X667Y365D01*
X0Y364D02*
X7Y364D01*
X454Y364D02*
X461Y364D01*
X660Y364D02*
X667Y364D01*
X0Y363D02*
X7Y363D01*
X454Y363D02*
X461Y363D01*
X660Y363D02*
X667Y363D01*
X0Y362D02*
X7Y362D01*
X454Y362D02*
X461Y362D01*
X660Y362D02*
X667Y362D01*
X0Y361D02*
X7Y361D01*
X454Y361D02*
X461Y361D01*
X660Y361D02*
X667Y361D01*
X0Y360D02*
X7Y360D01*
X454Y360D02*
X461Y360D01*
X660Y360D02*
X667Y360D01*
X0Y359D02*
X7Y359D01*
X454Y359D02*
X461Y359D01*
X660Y359D02*
X667Y359D01*
X0Y358D02*
X7Y358D01*
X454Y358D02*
X461Y358D01*
X660Y358D02*
X667Y358D01*
X0Y357D02*
X7Y357D01*
X454Y357D02*
X461Y357D01*
X660Y357D02*
X667Y357D01*
X0Y356D02*
X7Y356D01*
X454Y356D02*
X461Y356D01*
X660Y356D02*
X667Y356D01*
X0Y355D02*
X7Y355D01*
X454Y355D02*
X461Y355D01*
X660Y355D02*
X667Y355D01*
X0Y354D02*
X7Y354D01*
X454Y354D02*
X461Y354D01*
X660Y354D02*
X667Y354D01*
X0Y353D02*
X7Y353D01*
X454Y353D02*
X461Y353D01*
X660Y353D02*
X667Y353D01*
X0Y352D02*
X7Y352D01*
X454Y352D02*
X461Y352D01*
X660Y352D02*
X667Y352D01*
X0Y351D02*
X7Y351D01*
X456Y351D02*
X461Y351D01*
X660Y351D02*
X667Y351D01*
X0Y350D02*
X7Y350D01*
X458Y350D02*
X461Y350D01*
X660Y350D02*
X667Y350D01*
X0Y349D02*
X7Y349D01*
X460Y349D02*
X461Y349D01*
X660Y349D02*
X667Y349D01*
X0Y348D02*
X7Y348D01*
X461Y348D02*
X461Y348D01*
X660Y348D02*
X667Y348D01*
X0Y347D02*
X7Y347D01*
X660Y347D02*
X667Y347D01*
X0Y346D02*
X7Y346D01*
X660Y346D02*
X667Y346D01*
X0Y345D02*
X7Y345D01*
X660Y345D02*
X667Y345D01*
X0Y344D02*
X7Y344D01*
X660Y344D02*
X667Y344D01*
X0Y343D02*
X7Y343D01*
X660Y343D02*
X667Y343D01*
X0Y342D02*
X7Y342D01*
X660Y342D02*
X667Y342D01*
X0Y341D02*
X7Y341D01*
X660Y341D02*
X667Y341D01*
X0Y340D02*
X7Y340D01*
X660Y340D02*
X667Y340D01*
X0Y339D02*
X7Y339D01*
X660Y339D02*
X667Y339D01*
X0Y338D02*
X7Y338D01*
X660Y338D02*
X667Y338D01*
X0Y337D02*
X7Y337D01*
X660Y337D02*
X667Y337D01*
X0Y336D02*
X7Y336D01*
X660Y336D02*
X667Y336D01*
X0Y335D02*
X7Y335D01*
X660Y335D02*
X667Y335D01*
X0Y334D02*
X7Y334D01*
X660Y334D02*
X667Y334D01*
X0Y333D02*
X7Y333D01*
X660Y333D02*
X667Y333D01*
X0Y332D02*
X7Y332D01*
X660Y332D02*
X667Y332D01*
X0Y331D02*
X7Y331D01*
X660Y331D02*
X667Y331D01*
X0Y330D02*
X7Y330D01*
X660Y330D02*
X667Y330D01*
X0Y329D02*
X7Y329D01*
X660Y329D02*
X667Y329D01*
X0Y328D02*
X7Y328D01*
X660Y328D02*
X667Y328D01*
X0Y327D02*
X7Y327D01*
X660Y327D02*
X667Y327D01*
X0Y326D02*
X7Y326D01*
X660Y326D02*
X667Y326D01*
X0Y325D02*
X7Y325D01*
X660Y325D02*
X667Y325D01*
X0Y324D02*
X7Y324D01*
X660Y324D02*
X667Y324D01*
X0Y323D02*
X7Y323D01*
X660Y323D02*
X667Y323D01*
X0Y322D02*
X7Y322D01*
X660Y322D02*
X667Y322D01*
X0Y321D02*
X7Y321D01*
X660Y321D02*
X667Y321D01*
X0Y320D02*
X7Y320D01*
X660Y320D02*
X667Y320D01*
X0Y319D02*
X7Y319D01*
X660Y319D02*
X667Y319D01*
X0Y318D02*
X7Y318D01*
X660Y318D02*
X667Y318D01*
X0Y317D02*
X7Y317D01*
X660Y317D02*
X667Y317D01*
X0Y316D02*
X7Y316D01*
X660Y316D02*
X667Y316D01*
X0Y315D02*
X7Y315D01*
X400Y315D02*
X427Y315D01*
X660Y315D02*
X667Y315D01*
X0Y314D02*
X7Y314D01*
X398Y314D02*
X428Y314D01*
X660Y314D02*
X667Y314D01*
X0Y313D02*
X7Y313D01*
X398Y313D02*
X429Y313D01*
X660Y313D02*
X667Y313D01*
X0Y312D02*
X7Y312D01*
X397Y312D02*
X429Y312D01*
X660Y312D02*
X667Y312D01*
X0Y311D02*
X7Y311D01*
X397Y311D02*
X430Y311D01*
X660Y311D02*
X667Y311D01*
X0Y310D02*
X7Y310D01*
X397Y310D02*
X432Y310D01*
X660Y310D02*
X667Y310D01*
X0Y309D02*
X7Y309D01*
X397Y309D02*
X433Y309D01*
X660Y309D02*
X667Y309D01*
X0Y308D02*
X7Y308D01*
X397Y308D02*
X434Y308D01*
X460Y308D02*
X461Y308D01*
X660Y308D02*
X667Y308D01*
X0Y307D02*
X7Y307D01*
X397Y307D02*
X436Y307D01*
X459Y307D02*
X461Y307D01*
X660Y307D02*
X667Y307D01*
X0Y306D02*
X7Y306D01*
X397Y306D02*
X438Y306D01*
X457Y306D02*
X461Y306D01*
X660Y306D02*
X667Y306D01*
X0Y305D02*
X7Y305D01*
X397Y305D02*
X406Y305D01*
X436Y305D02*
X440Y305D01*
X455Y305D02*
X461Y305D01*
X660Y305D02*
X667Y305D01*
X0Y304D02*
X7Y304D01*
X397Y304D02*
X405Y304D01*
X436Y304D02*
X444Y304D01*
X454Y304D02*
X461Y304D01*
X660Y304D02*
X667Y304D01*
X0Y303D02*
X7Y303D01*
X398Y303D02*
X405Y303D01*
X436Y303D02*
X446Y303D01*
X454Y303D02*
X461Y303D01*
X660Y303D02*
X667Y303D01*
X0Y302D02*
X7Y302D01*
X399Y302D02*
X404Y302D01*
X436Y302D02*
X446Y302D01*
X454Y302D02*
X461Y302D01*
X660Y302D02*
X667Y302D01*
X0Y301D02*
X7Y301D01*
X401Y301D02*
X401Y301D01*
X436Y301D02*
X446Y301D01*
X454Y301D02*
X461Y301D01*
X660Y301D02*
X667Y301D01*
X0Y300D02*
X7Y300D01*
X436Y300D02*
X446Y300D01*
X454Y300D02*
X461Y300D01*
X660Y300D02*
X667Y300D01*
X0Y299D02*
X7Y299D01*
X436Y299D02*
X446Y299D01*
X454Y299D02*
X461Y299D01*
X660Y299D02*
X667Y299D01*
X0Y298D02*
X7Y298D01*
X436Y298D02*
X446Y298D01*
X454Y298D02*
X461Y298D01*
X660Y298D02*
X667Y298D01*
X0Y297D02*
X7Y297D01*
X436Y297D02*
X446Y297D01*
X454Y297D02*
X461Y297D01*
X660Y297D02*
X667Y297D01*
X0Y296D02*
X7Y296D01*
X436Y296D02*
X446Y296D01*
X454Y296D02*
X461Y296D01*
X660Y296D02*
X667Y296D01*
X0Y295D02*
X7Y295D01*
X436Y295D02*
X446Y295D01*
X454Y295D02*
X461Y295D01*
X660Y295D02*
X667Y295D01*
X0Y294D02*
X7Y294D01*
X329Y294D02*
X329Y294D01*
X368Y294D02*
X369Y294D01*
X436Y294D02*
X446Y294D01*
X454Y294D02*
X461Y294D01*
X660Y294D02*
X667Y294D01*
X0Y293D02*
X7Y293D01*
X326Y293D02*
X332Y293D01*
X366Y293D02*
X371Y293D01*
X436Y293D02*
X446Y293D01*
X454Y293D02*
X461Y293D01*
X660Y293D02*
X667Y293D01*
X0Y292D02*
X7Y292D01*
X325Y292D02*
X333Y292D01*
X365Y292D02*
X372Y292D01*
X436Y292D02*
X446Y292D01*
X454Y292D02*
X461Y292D01*
X660Y292D02*
X667Y292D01*
X0Y291D02*
X7Y291D01*
X325Y291D02*
X333Y291D01*
X365Y291D02*
X373Y291D01*
X436Y291D02*
X446Y291D01*
X454Y291D02*
X461Y291D01*
X660Y291D02*
X667Y291D01*
X0Y290D02*
X7Y290D01*
X325Y290D02*
X333Y290D01*
X364Y290D02*
X373Y290D01*
X436Y290D02*
X446Y290D01*
X454Y290D02*
X461Y290D01*
X660Y290D02*
X667Y290D01*
X0Y289D02*
X7Y289D01*
X324Y289D02*
X334Y289D01*
X364Y289D02*
X373Y289D01*
X436Y289D02*
X446Y289D01*
X454Y289D02*
X461Y289D01*
X660Y289D02*
X667Y289D01*
X0Y288D02*
X7Y288D01*
X324Y288D02*
X334Y288D01*
X364Y288D02*
X373Y288D01*
X436Y288D02*
X446Y288D01*
X454Y288D02*
X461Y288D01*
X660Y288D02*
X667Y288D01*
X0Y287D02*
X7Y287D01*
X324Y287D02*
X334Y287D01*
X364Y287D02*
X373Y287D01*
X436Y287D02*
X446Y287D01*
X454Y287D02*
X461Y287D01*
X660Y287D02*
X667Y287D01*
X0Y286D02*
X7Y286D01*
X324Y286D02*
X334Y286D01*
X364Y286D02*
X373Y286D01*
X435Y286D02*
X446Y286D01*
X454Y286D02*
X461Y286D01*
X660Y286D02*
X667Y286D01*
X0Y285D02*
X7Y285D01*
X324Y285D02*
X334Y285D01*
X364Y285D02*
X373Y285D01*
X434Y285D02*
X446Y285D01*
X454Y285D02*
X461Y285D01*
X660Y285D02*
X667Y285D01*
X0Y284D02*
X7Y284D01*
X324Y284D02*
X334Y284D01*
X364Y284D02*
X373Y284D01*
X433Y284D02*
X445Y284D01*
X454Y284D02*
X461Y284D01*
X660Y284D02*
X667Y284D01*
X0Y283D02*
X7Y283D01*
X324Y283D02*
X334Y283D01*
X364Y283D02*
X373Y283D01*
X432Y283D02*
X445Y283D01*
X454Y283D02*
X461Y283D01*
X660Y283D02*
X667Y283D01*
X0Y282D02*
X7Y282D01*
X324Y282D02*
X334Y282D01*
X364Y282D02*
X373Y282D01*
X430Y282D02*
X445Y282D01*
X454Y282D02*
X461Y282D01*
X660Y282D02*
X667Y282D01*
X0Y281D02*
X7Y281D01*
X324Y281D02*
X334Y281D01*
X364Y281D02*
X373Y281D01*
X429Y281D02*
X444Y281D01*
X454Y281D02*
X461Y281D01*
X660Y281D02*
X667Y281D01*
X0Y280D02*
X7Y280D01*
X324Y280D02*
X334Y280D01*
X363Y280D02*
X373Y280D01*
X428Y280D02*
X443Y280D01*
X454Y280D02*
X461Y280D01*
X660Y280D02*
X667Y280D01*
X0Y279D02*
X7Y279D01*
X325Y279D02*
X335Y279D01*
X363Y279D02*
X373Y279D01*
X427Y279D02*
X442Y279D01*
X454Y279D02*
X461Y279D01*
X660Y279D02*
X667Y279D01*
X0Y278D02*
X7Y278D01*
X325Y278D02*
X335Y278D01*
X363Y278D02*
X373Y278D01*
X426Y278D02*
X440Y278D01*
X454Y278D02*
X461Y278D01*
X660Y278D02*
X667Y278D01*
X0Y277D02*
X7Y277D01*
X325Y277D02*
X336Y277D01*
X362Y277D02*
X372Y277D01*
X425Y277D02*
X439Y277D01*
X454Y277D02*
X461Y277D01*
X660Y277D02*
X667Y277D01*
X0Y276D02*
X7Y276D01*
X326Y276D02*
X336Y276D01*
X362Y276D02*
X372Y276D01*
X423Y276D02*
X438Y276D01*
X454Y276D02*
X461Y276D01*
X660Y276D02*
X667Y276D01*
X0Y275D02*
X7Y275D01*
X326Y275D02*
X336Y275D01*
X361Y275D02*
X371Y275D01*
X422Y275D02*
X437Y275D01*
X454Y275D02*
X461Y275D01*
X660Y275D02*
X667Y275D01*
X0Y274D02*
X7Y274D01*
X327Y274D02*
X337Y274D01*
X361Y274D02*
X371Y274D01*
X421Y274D02*
X436Y274D01*
X454Y274D02*
X461Y274D01*
X660Y274D02*
X667Y274D01*
X0Y273D02*
X7Y273D01*
X327Y273D02*
X337Y273D01*
X360Y273D02*
X370Y273D01*
X420Y273D02*
X434Y273D01*
X454Y273D02*
X461Y273D01*
X660Y273D02*
X667Y273D01*
X0Y272D02*
X7Y272D01*
X328Y272D02*
X338Y272D01*
X360Y272D02*
X370Y272D01*
X419Y272D02*
X433Y272D01*
X454Y272D02*
X461Y272D01*
X660Y272D02*
X667Y272D01*
X0Y271D02*
X7Y271D01*
X328Y271D02*
X338Y271D01*
X359Y271D02*
X369Y271D01*
X418Y271D02*
X432Y271D01*
X454Y271D02*
X461Y271D01*
X660Y271D02*
X667Y271D01*
X0Y270D02*
X7Y270D01*
X329Y270D02*
X339Y270D01*
X359Y270D02*
X369Y270D01*
X417Y270D02*
X431Y270D01*
X454Y270D02*
X461Y270D01*
X660Y270D02*
X667Y270D01*
X0Y269D02*
X7Y269D01*
X329Y269D02*
X339Y269D01*
X359Y269D02*
X369Y269D01*
X417Y269D02*
X430Y269D01*
X454Y269D02*
X461Y269D01*
X660Y269D02*
X667Y269D01*
X0Y268D02*
X7Y268D01*
X329Y268D02*
X339Y268D01*
X358Y268D02*
X368Y268D01*
X417Y268D02*
X429Y268D01*
X454Y268D02*
X461Y268D01*
X660Y268D02*
X667Y268D01*
X0Y267D02*
X7Y267D01*
X330Y267D02*
X340Y267D01*
X358Y267D02*
X368Y267D01*
X417Y267D02*
X427Y267D01*
X454Y267D02*
X461Y267D01*
X660Y267D02*
X667Y267D01*
X0Y266D02*
X7Y266D01*
X330Y266D02*
X340Y266D01*
X357Y266D02*
X367Y266D01*
X417Y266D02*
X426Y266D01*
X454Y266D02*
X461Y266D01*
X660Y266D02*
X667Y266D01*
X0Y265D02*
X7Y265D01*
X331Y265D02*
X341Y265D01*
X357Y265D02*
X367Y265D01*
X417Y265D02*
X426Y265D01*
X454Y265D02*
X461Y265D01*
X660Y265D02*
X667Y265D01*
X0Y264D02*
X7Y264D01*
X331Y264D02*
X341Y264D01*
X356Y264D02*
X366Y264D01*
X417Y264D02*
X426Y264D01*
X454Y264D02*
X461Y264D01*
X660Y264D02*
X667Y264D01*
X0Y263D02*
X7Y263D01*
X332Y263D02*
X342Y263D01*
X356Y263D02*
X366Y263D01*
X417Y263D02*
X426Y263D01*
X454Y263D02*
X461Y263D01*
X660Y263D02*
X667Y263D01*
X0Y262D02*
X7Y262D01*
X332Y262D02*
X342Y262D01*
X356Y262D02*
X366Y262D01*
X417Y262D02*
X426Y262D01*
X454Y262D02*
X461Y262D01*
X660Y262D02*
X667Y262D01*
X0Y261D02*
X7Y261D01*
X332Y261D02*
X342Y261D01*
X355Y261D02*
X365Y261D01*
X417Y261D02*
X426Y261D01*
X454Y261D02*
X461Y261D01*
X660Y261D02*
X667Y261D01*
X0Y260D02*
X7Y260D01*
X333Y260D02*
X343Y260D01*
X355Y260D02*
X365Y260D01*
X417Y260D02*
X426Y260D01*
X454Y260D02*
X461Y260D01*
X660Y260D02*
X667Y260D01*
X0Y259D02*
X7Y259D01*
X333Y259D02*
X343Y259D01*
X354Y259D02*
X364Y259D01*
X417Y259D02*
X426Y259D01*
X454Y259D02*
X461Y259D01*
X660Y259D02*
X667Y259D01*
X0Y258D02*
X7Y258D01*
X334Y258D02*
X344Y258D01*
X354Y258D02*
X364Y258D01*
X417Y258D02*
X426Y258D01*
X454Y258D02*
X461Y258D01*
X660Y258D02*
X667Y258D01*
X0Y257D02*
X7Y257D01*
X334Y257D02*
X344Y257D01*
X353Y257D02*
X363Y257D01*
X417Y257D02*
X426Y257D01*
X454Y257D02*
X461Y257D01*
X660Y257D02*
X667Y257D01*
X0Y256D02*
X7Y256D01*
X335Y256D02*
X345Y256D01*
X353Y256D02*
X363Y256D01*
X417Y256D02*
X426Y256D01*
X454Y256D02*
X461Y256D01*
X660Y256D02*
X667Y256D01*
X0Y255D02*
X7Y255D01*
X335Y255D02*
X345Y255D01*
X352Y255D02*
X362Y255D01*
X417Y255D02*
X426Y255D01*
X454Y255D02*
X461Y255D01*
X660Y255D02*
X667Y255D01*
X0Y254D02*
X7Y254D01*
X336Y254D02*
X346Y254D01*
X352Y254D02*
X362Y254D01*
X417Y254D02*
X426Y254D01*
X454Y254D02*
X461Y254D01*
X660Y254D02*
X667Y254D01*
X0Y253D02*
X7Y253D01*
X336Y253D02*
X346Y253D01*
X352Y253D02*
X362Y253D01*
X417Y253D02*
X426Y253D01*
X454Y253D02*
X461Y253D01*
X660Y253D02*
X667Y253D01*
X0Y252D02*
X7Y252D01*
X336Y252D02*
X346Y252D01*
X351Y252D02*
X361Y252D01*
X417Y252D02*
X426Y252D01*
X454Y252D02*
X461Y252D01*
X660Y252D02*
X667Y252D01*
X0Y251D02*
X7Y251D01*
X337Y251D02*
X347Y251D01*
X351Y251D02*
X361Y251D01*
X417Y251D02*
X426Y251D01*
X454Y251D02*
X461Y251D01*
X660Y251D02*
X667Y251D01*
X0Y250D02*
X7Y250D01*
X337Y250D02*
X347Y250D01*
X350Y250D02*
X360Y250D01*
X417Y250D02*
X426Y250D01*
X454Y250D02*
X461Y250D01*
X660Y250D02*
X667Y250D01*
X0Y249D02*
X7Y249D01*
X338Y249D02*
X348Y249D01*
X350Y249D02*
X360Y249D01*
X417Y249D02*
X426Y249D01*
X454Y249D02*
X461Y249D01*
X660Y249D02*
X667Y249D01*
X0Y248D02*
X7Y248D01*
X338Y248D02*
X359Y248D01*
X417Y248D02*
X426Y248D01*
X454Y248D02*
X461Y248D01*
X660Y248D02*
X667Y248D01*
X0Y247D02*
X7Y247D01*
X339Y247D02*
X359Y247D01*
X417Y247D02*
X426Y247D01*
X454Y247D02*
X461Y247D01*
X660Y247D02*
X667Y247D01*
X0Y246D02*
X7Y246D01*
X339Y246D02*
X359Y246D01*
X417Y246D02*
X426Y246D01*
X454Y246D02*
X461Y246D01*
X660Y246D02*
X667Y246D01*
X0Y245D02*
X7Y245D01*
X339Y245D02*
X358Y245D01*
X417Y245D02*
X426Y245D01*
X454Y245D02*
X461Y245D01*
X660Y245D02*
X667Y245D01*
X0Y244D02*
X7Y244D01*
X340Y244D02*
X358Y244D01*
X417Y244D02*
X426Y244D01*
X454Y244D02*
X461Y244D01*
X660Y244D02*
X667Y244D01*
X0Y243D02*
X7Y243D01*
X340Y243D02*
X357Y243D01*
X417Y243D02*
X426Y243D01*
X454Y243D02*
X461Y243D01*
X660Y243D02*
X667Y243D01*
X0Y242D02*
X7Y242D01*
X341Y242D02*
X357Y242D01*
X417Y242D02*
X426Y242D01*
X454Y242D02*
X461Y242D01*
X660Y242D02*
X667Y242D01*
X0Y241D02*
X7Y241D01*
X341Y241D02*
X356Y241D01*
X417Y241D02*
X425Y241D01*
X454Y241D02*
X461Y241D01*
X660Y241D02*
X667Y241D01*
X0Y240D02*
X7Y240D01*
X342Y240D02*
X356Y240D01*
X417Y240D02*
X425Y240D01*
X454Y240D02*
X461Y240D01*
X660Y240D02*
X667Y240D01*
X0Y239D02*
X7Y239D01*
X342Y239D02*
X355Y239D01*
X418Y239D02*
X424Y239D01*
X454Y239D02*
X461Y239D01*
X660Y239D02*
X667Y239D01*
X0Y238D02*
X7Y238D01*
X343Y238D02*
X354Y238D01*
X419Y238D02*
X423Y238D01*
X454Y238D02*
X461Y238D01*
X660Y238D02*
X667Y238D01*
X0Y237D02*
X7Y237D01*
X454Y237D02*
X461Y237D01*
X660Y237D02*
X667Y237D01*
X0Y236D02*
X7Y236D01*
X454Y236D02*
X461Y236D01*
X660Y236D02*
X667Y236D01*
X0Y235D02*
X7Y235D01*
X454Y235D02*
X461Y235D01*
X660Y235D02*
X667Y235D01*
X0Y234D02*
X7Y234D01*
X454Y234D02*
X461Y234D01*
X660Y234D02*
X667Y234D01*
X0Y233D02*
X7Y233D01*
X454Y233D02*
X461Y233D01*
X660Y233D02*
X667Y233D01*
X0Y232D02*
X7Y232D01*
X454Y232D02*
X461Y232D01*
X660Y232D02*
X667Y232D01*
X0Y231D02*
X7Y231D01*
X454Y231D02*
X461Y231D01*
X660Y231D02*
X667Y231D01*
X0Y230D02*
X7Y230D01*
X454Y230D02*
X461Y230D01*
X660Y230D02*
X667Y230D01*
X0Y229D02*
X7Y229D01*
X454Y229D02*
X461Y229D01*
X660Y229D02*
X667Y229D01*
X0Y228D02*
X7Y228D01*
X454Y228D02*
X461Y228D01*
X660Y228D02*
X667Y228D01*
X0Y227D02*
X7Y227D01*
X454Y227D02*
X461Y227D01*
X660Y227D02*
X667Y227D01*
X0Y226D02*
X7Y226D01*
X454Y226D02*
X461Y226D01*
X660Y226D02*
X667Y226D01*
X0Y225D02*
X7Y225D01*
X454Y225D02*
X461Y225D01*
X660Y225D02*
X667Y225D01*
X0Y224D02*
X7Y224D01*
X454Y224D02*
X461Y224D01*
X660Y224D02*
X667Y224D01*
X0Y223D02*
X7Y223D01*
X454Y223D02*
X461Y223D01*
X660Y223D02*
X667Y223D01*
X0Y222D02*
X7Y222D01*
X454Y222D02*
X461Y222D01*
X660Y222D02*
X667Y222D01*
X0Y221D02*
X7Y221D01*
X454Y221D02*
X461Y221D01*
X660Y221D02*
X667Y221D01*
X0Y220D02*
X7Y220D01*
X454Y220D02*
X461Y220D01*
X660Y220D02*
X667Y220D01*
X0Y219D02*
X7Y219D01*
X454Y219D02*
X461Y219D01*
X660Y219D02*
X667Y219D01*
X0Y218D02*
X7Y218D01*
X454Y218D02*
X461Y218D01*
X660Y218D02*
X667Y218D01*
X0Y217D02*
X7Y217D01*
X454Y217D02*
X461Y217D01*
X660Y217D02*
X667Y217D01*
X0Y216D02*
X7Y216D01*
X454Y216D02*
X461Y216D01*
X660Y216D02*
X667Y216D01*
X0Y215D02*
X7Y215D01*
X454Y215D02*
X461Y215D01*
X660Y215D02*
X667Y215D01*
X0Y214D02*
X7Y214D01*
X454Y214D02*
X461Y214D01*
X660Y214D02*
X667Y214D01*
X0Y213D02*
X7Y213D01*
X454Y213D02*
X461Y213D01*
X660Y213D02*
X667Y213D01*
X0Y212D02*
X7Y212D01*
X454Y212D02*
X461Y212D01*
X660Y212D02*
X667Y212D01*
X0Y211D02*
X7Y211D01*
X454Y211D02*
X461Y211D01*
X660Y211D02*
X667Y211D01*
X0Y210D02*
X7Y210D01*
X454Y210D02*
X461Y210D01*
X660Y210D02*
X667Y210D01*
X0Y209D02*
X7Y209D01*
X454Y209D02*
X461Y209D01*
X660Y209D02*
X667Y209D01*
X0Y208D02*
X7Y208D01*
X454Y208D02*
X461Y208D01*
X660Y208D02*
X667Y208D01*
X0Y207D02*
X7Y207D01*
X454Y207D02*
X461Y207D01*
X660Y207D02*
X667Y207D01*
X0Y206D02*
X7Y206D01*
X454Y206D02*
X461Y206D01*
X660Y206D02*
X667Y206D01*
X0Y205D02*
X7Y205D01*
X454Y205D02*
X461Y205D01*
X660Y205D02*
X667Y205D01*
X0Y204D02*
X7Y204D01*
X454Y204D02*
X461Y204D01*
X660Y204D02*
X667Y204D01*
X0Y203D02*
X7Y203D01*
X454Y203D02*
X461Y203D01*
X660Y203D02*
X667Y203D01*
X0Y202D02*
X7Y202D01*
X454Y202D02*
X461Y202D01*
X660Y202D02*
X667Y202D01*
X0Y201D02*
X7Y201D01*
X454Y201D02*
X461Y201D01*
X660Y201D02*
X667Y201D01*
X0Y200D02*
X7Y200D01*
X454Y200D02*
X461Y200D01*
X660Y200D02*
X667Y200D01*
X0Y199D02*
X7Y199D01*
X454Y199D02*
X461Y199D01*
X660Y199D02*
X667Y199D01*
X0Y198D02*
X7Y198D01*
X454Y198D02*
X461Y198D01*
X660Y198D02*
X667Y198D01*
X0Y197D02*
X7Y197D01*
X454Y197D02*
X461Y197D01*
X660Y197D02*
X667Y197D01*
X0Y196D02*
X7Y196D01*
X454Y196D02*
X461Y196D01*
X660Y196D02*
X667Y196D01*
X0Y195D02*
X7Y195D01*
X454Y195D02*
X461Y195D01*
X660Y195D02*
X667Y195D01*
X0Y194D02*
X7Y194D01*
X454Y194D02*
X461Y194D01*
X660Y194D02*
X667Y194D01*
X0Y193D02*
X7Y193D01*
X454Y193D02*
X461Y193D01*
X660Y193D02*
X667Y193D01*
X0Y192D02*
X7Y192D01*
X454Y192D02*
X461Y192D01*
X660Y192D02*
X667Y192D01*
X0Y191D02*
X7Y191D01*
X454Y191D02*
X461Y191D01*
X660Y191D02*
X667Y191D01*
X0Y190D02*
X7Y190D01*
X454Y190D02*
X461Y190D01*
X660Y190D02*
X667Y190D01*
X0Y189D02*
X7Y189D01*
X454Y189D02*
X461Y189D01*
X660Y189D02*
X667Y189D01*
X0Y188D02*
X7Y188D01*
X454Y188D02*
X461Y188D01*
X660Y188D02*
X667Y188D01*
X0Y187D02*
X7Y187D01*
X454Y187D02*
X461Y187D01*
X660Y187D02*
X667Y187D01*
X0Y186D02*
X7Y186D01*
X454Y186D02*
X461Y186D01*
X660Y186D02*
X667Y186D01*
X0Y185D02*
X7Y185D01*
X454Y185D02*
X461Y185D01*
X660Y185D02*
X667Y185D01*
X0Y184D02*
X7Y184D01*
X454Y184D02*
X461Y184D01*
X660Y184D02*
X667Y184D01*
X0Y183D02*
X7Y183D01*
X454Y183D02*
X461Y183D01*
X660Y183D02*
X667Y183D01*
X0Y182D02*
X7Y182D01*
X454Y182D02*
X461Y182D01*
X660Y182D02*
X667Y182D01*
X0Y181D02*
X7Y181D01*
X454Y181D02*
X461Y181D01*
X660Y181D02*
X667Y181D01*
X0Y180D02*
X7Y180D01*
X454Y180D02*
X461Y180D01*
X660Y180D02*
X667Y180D01*
X0Y179D02*
X7Y179D01*
X454Y179D02*
X461Y179D01*
X660Y179D02*
X667Y179D01*
X0Y178D02*
X7Y178D01*
X454Y178D02*
X461Y178D01*
X660Y178D02*
X667Y178D01*
X0Y177D02*
X7Y177D01*
X454Y177D02*
X461Y177D01*
X660Y177D02*
X667Y177D01*
X0Y176D02*
X7Y176D01*
X454Y176D02*
X461Y176D01*
X660Y176D02*
X667Y176D01*
X0Y175D02*
X7Y175D01*
X454Y175D02*
X461Y175D01*
X660Y175D02*
X667Y175D01*
X0Y174D02*
X7Y174D01*
X454Y174D02*
X461Y174D01*
X660Y174D02*
X667Y174D01*
X0Y173D02*
X7Y173D01*
X454Y173D02*
X461Y173D01*
X660Y173D02*
X667Y173D01*
X0Y172D02*
X7Y172D01*
X454Y172D02*
X461Y172D01*
X660Y172D02*
X667Y172D01*
X0Y171D02*
X7Y171D01*
X454Y171D02*
X461Y171D01*
X660Y171D02*
X667Y171D01*
X0Y170D02*
X7Y170D01*
X454Y170D02*
X461Y170D01*
X660Y170D02*
X667Y170D01*
X0Y169D02*
X7Y169D01*
X454Y169D02*
X461Y169D01*
X660Y169D02*
X667Y169D01*
X0Y168D02*
X7Y168D01*
X454Y168D02*
X461Y168D01*
X660Y168D02*
X667Y168D01*
X0Y167D02*
X7Y167D01*
X454Y167D02*
X461Y167D01*
X660Y167D02*
X667Y167D01*
X0Y166D02*
X7Y166D01*
X454Y166D02*
X461Y166D01*
X660Y166D02*
X667Y166D01*
X0Y165D02*
X7Y165D01*
X454Y165D02*
X461Y165D01*
X660Y165D02*
X667Y165D01*
X0Y164D02*
X7Y164D01*
X454Y164D02*
X461Y164D01*
X660Y164D02*
X667Y164D01*
X0Y163D02*
X7Y163D01*
X454Y163D02*
X461Y163D01*
X660Y163D02*
X667Y163D01*
X0Y162D02*
X7Y162D01*
X454Y162D02*
X461Y162D01*
X660Y162D02*
X667Y162D01*
X0Y161D02*
X7Y161D01*
X454Y161D02*
X461Y161D01*
X660Y161D02*
X667Y161D01*
X0Y160D02*
X7Y160D01*
X454Y160D02*
X461Y160D01*
X660Y160D02*
X667Y160D01*
X0Y159D02*
X7Y159D01*
X453Y159D02*
X460Y159D01*
X660Y159D02*
X667Y159D01*
X0Y158D02*
X7Y158D01*
X453Y158D02*
X460Y158D01*
X660Y158D02*
X667Y158D01*
X0Y157D02*
X7Y157D01*
X303Y157D02*
X308Y157D01*
X453Y157D02*
X460Y157D01*
X660Y157D02*
X667Y157D01*
X0Y156D02*
X7Y156D01*
X301Y156D02*
X308Y156D01*
X453Y156D02*
X460Y156D01*
X660Y156D02*
X667Y156D01*
X0Y155D02*
X7Y155D01*
X301Y155D02*
X308Y155D01*
X452Y155D02*
X459Y155D01*
X660Y155D02*
X667Y155D01*
X0Y154D02*
X7Y154D01*
X301Y154D02*
X309Y154D01*
X451Y154D02*
X459Y154D01*
X660Y154D02*
X667Y154D01*
X0Y153D02*
X7Y153D01*
X301Y153D02*
X309Y153D01*
X450Y153D02*
X459Y153D01*
X660Y153D02*
X667Y153D01*
X0Y152D02*
X7Y152D01*
X302Y152D02*
X310Y152D01*
X449Y152D02*
X458Y152D01*
X660Y152D02*
X667Y152D01*
X0Y151D02*
X7Y151D01*
X303Y151D02*
X312Y151D01*
X447Y151D02*
X457Y151D01*
X660Y151D02*
X667Y151D01*
X0Y150D02*
X7Y150D01*
X303Y150D02*
X318Y150D01*
X443Y150D02*
X457Y150D01*
X660Y150D02*
X667Y150D01*
X0Y149D02*
X7Y149D01*
X304Y149D02*
X318Y149D01*
X443Y149D02*
X456Y149D01*
X660Y149D02*
X667Y149D01*
X0Y148D02*
X7Y148D01*
X305Y148D02*
X318Y148D01*
X443Y148D02*
X455Y148D01*
X660Y148D02*
X667Y148D01*
X0Y147D02*
X7Y147D01*
X306Y147D02*
X318Y147D01*
X443Y147D02*
X454Y147D01*
X660Y147D02*
X667Y147D01*
X0Y146D02*
X7Y146D01*
X307Y146D02*
X318Y146D01*
X443Y146D02*
X453Y146D01*
X660Y146D02*
X667Y146D01*
X0Y145D02*
X7Y145D01*
X308Y145D02*
X319Y145D01*
X443Y145D02*
X451Y145D01*
X660Y145D02*
X667Y145D01*
X0Y144D02*
X7Y144D01*
X310Y144D02*
X319Y144D01*
X443Y144D02*
X449Y144D01*
X660Y144D02*
X667Y144D01*
X0Y143D02*
X7Y143D01*
X312Y143D02*
X319Y143D01*
X443Y143D02*
X447Y143D01*
X660Y143D02*
X667Y143D01*
X0Y142D02*
X7Y142D01*
X660Y142D02*
X667Y142D01*
X0Y141D02*
X7Y141D01*
X660Y141D02*
X667Y141D01*
X0Y140D02*
X7Y140D01*
X660Y140D02*
X667Y140D01*
X0Y139D02*
X7Y139D01*
X660Y139D02*
X667Y139D01*
X0Y138D02*
X7Y138D01*
X660Y138D02*
X667Y138D01*
X0Y137D02*
X7Y137D01*
X660Y137D02*
X667Y137D01*
X0Y136D02*
X7Y136D01*
X660Y136D02*
X667Y136D01*
X0Y135D02*
X7Y135D01*
X660Y135D02*
X667Y135D01*
X0Y134D02*
X7Y134D01*
X660Y134D02*
X667Y134D01*
X0Y133D02*
X7Y133D01*
X660Y133D02*
X667Y133D01*
X0Y132D02*
X7Y132D01*
X660Y132D02*
X667Y132D01*
X0Y131D02*
X7Y131D01*
X660Y131D02*
X667Y131D01*
X0Y130D02*
X7Y130D01*
X660Y130D02*
X667Y130D01*
X0Y129D02*
X7Y129D01*
X660Y129D02*
X667Y129D01*
X0Y128D02*
X7Y128D01*
X660Y128D02*
X667Y128D01*
X0Y127D02*
X7Y127D01*
X660Y127D02*
X667Y127D01*
X0Y126D02*
X7Y126D01*
X660Y126D02*
X667Y126D01*
X0Y125D02*
X7Y125D01*
X660Y125D02*
X667Y125D01*
X0Y124D02*
X7Y124D01*
X660Y124D02*
X667Y124D01*
X0Y123D02*
X7Y123D01*
X660Y123D02*
X667Y123D01*
X0Y122D02*
X7Y122D01*
X660Y122D02*
X667Y122D01*
X0Y121D02*
X7Y121D01*
X660Y121D02*
X667Y121D01*
X0Y120D02*
X7Y120D01*
X660Y120D02*
X667Y120D01*
X0Y119D02*
X7Y119D01*
X660Y119D02*
X667Y119D01*
X0Y118D02*
X7Y118D01*
X660Y118D02*
X667Y118D01*
X0Y117D02*
X7Y117D01*
X660Y117D02*
X667Y117D01*
X0Y116D02*
X7Y116D01*
X660Y116D02*
X667Y116D01*
X0Y115D02*
X7Y115D01*
X660Y115D02*
X667Y115D01*
X0Y114D02*
X7Y114D01*
X660Y114D02*
X667Y114D01*
X0Y113D02*
X7Y113D01*
X660Y113D02*
X667Y113D01*
X0Y112D02*
X7Y112D01*
X660Y112D02*
X667Y112D01*
X0Y111D02*
X7Y111D01*
X660Y111D02*
X667Y111D01*
X0Y110D02*
X7Y110D01*
X660Y110D02*
X667Y110D01*
X0Y109D02*
X7Y109D01*
X660Y109D02*
X667Y109D01*
X0Y108D02*
X7Y108D01*
X660Y108D02*
X667Y108D01*
X0Y107D02*
X7Y107D01*
X660Y107D02*
X667Y107D01*
X0Y106D02*
X7Y106D01*
X660Y106D02*
X667Y106D01*
X0Y105D02*
X7Y105D01*
X660Y105D02*
X667Y105D01*
X0Y104D02*
X7Y104D01*
X660Y104D02*
X667Y104D01*
X0Y103D02*
X7Y103D01*
X660Y103D02*
X667Y103D01*
X0Y102D02*
X7Y102D01*
X660Y102D02*
X667Y102D01*
X0Y101D02*
X7Y101D01*
X660Y101D02*
X667Y101D01*
X0Y100D02*
X7Y100D01*
X660Y100D02*
X667Y100D01*
X0Y99D02*
X7Y99D01*
X660Y99D02*
X667Y99D01*
X0Y98D02*
X7Y98D01*
X660Y98D02*
X667Y98D01*
X0Y97D02*
X7Y97D01*
X660Y97D02*
X667Y97D01*
X0Y96D02*
X7Y96D01*
X660Y96D02*
X667Y96D01*
X0Y95D02*
X7Y95D01*
X660Y95D02*
X667Y95D01*
X0Y94D02*
X7Y94D01*
X660Y94D02*
X667Y94D01*
X0Y93D02*
X7Y93D01*
X660Y93D02*
X667Y93D01*
X0Y92D02*
X7Y92D01*
X660Y92D02*
X667Y92D01*
X0Y91D02*
X7Y91D01*
X237Y91D02*
X263Y91D01*
X308Y91D02*
X313Y91D01*
X358Y91D02*
X363Y91D01*
X408Y91D02*
X436Y91D01*
X660Y91D02*
X667Y91D01*
X0Y90D02*
X7Y90D01*
X237Y90D02*
X263Y90D01*
X309Y90D02*
X313Y90D01*
X359Y90D02*
X363Y90D01*
X409Y90D02*
X436Y90D01*
X660Y90D02*
X667Y90D01*
X0Y89D02*
X7Y89D01*
X237Y89D02*
X262Y89D01*
X309Y89D02*
X312Y89D01*
X359Y89D02*
X362Y89D01*
X409Y89D02*
X436Y89D01*
X660Y89D02*
X667Y89D01*
X0Y88D02*
X7Y88D01*
X237Y88D02*
X262Y88D01*
X310Y88D02*
X312Y88D01*
X360Y88D02*
X362Y88D01*
X410Y88D02*
X436Y88D01*
X660Y88D02*
X667Y88D01*
X0Y87D02*
X7Y87D01*
X237Y87D02*
X262Y87D01*
X310Y87D02*
X312Y87D01*
X360Y87D02*
X362Y87D01*
X410Y87D02*
X436Y87D01*
X660Y87D02*
X667Y87D01*
X0Y86D02*
X7Y86D01*
X233Y86D02*
X261Y86D01*
X310Y86D02*
X311Y86D01*
X360Y86D02*
X361Y86D01*
X410Y86D02*
X441Y86D01*
X660Y86D02*
X667Y86D01*
X0Y85D02*
X7Y85D01*
X233Y85D02*
X261Y85D01*
X311Y85D02*
X311Y85D01*
X361Y85D02*
X361Y85D01*
X411Y85D02*
X441Y85D01*
X660Y85D02*
X667Y85D01*
X0Y84D02*
X7Y84D01*
X233Y84D02*
X261Y84D01*
X311Y84D02*
X311Y84D01*
X361Y84D02*
X361Y84D01*
X411Y84D02*
X441Y84D01*
X660Y84D02*
X667Y84D01*
X0Y83D02*
X7Y83D01*
X233Y83D02*
X261Y83D01*
X311Y83D02*
X311Y83D01*
X361Y83D02*
X361Y83D01*
X411Y83D02*
X441Y83D01*
X660Y83D02*
X667Y83D01*
X0Y82D02*
X7Y82D01*
X233Y82D02*
X261Y82D01*
X311Y82D02*
X311Y82D01*
X361Y82D02*
X361Y82D01*
X411Y82D02*
X441Y82D01*
X660Y82D02*
X667Y82D01*
X0Y81D02*
X7Y81D01*
X233Y81D02*
X242Y81D01*
X411Y81D02*
X411Y81D01*
X432Y81D02*
X441Y81D01*
X660Y81D02*
X667Y81D01*
X0Y80D02*
X7Y80D01*
X233Y80D02*
X242Y80D01*
X411Y80D02*
X412Y80D01*
X432Y80D02*
X441Y80D01*
X660Y80D02*
X667Y80D01*
X0Y79D02*
X7Y79D01*
X233Y79D02*
X242Y79D01*
X411Y79D02*
X413Y79D01*
X432Y79D02*
X441Y79D01*
X660Y79D02*
X667Y79D01*
X0Y78D02*
X7Y78D01*
X233Y78D02*
X242Y78D01*
X411Y78D02*
X414Y78D01*
X432Y78D02*
X441Y78D01*
X660Y78D02*
X667Y78D01*
X0Y77D02*
X7Y77D01*
X233Y77D02*
X242Y77D01*
X411Y77D02*
X415Y77D01*
X432Y77D02*
X441Y77D01*
X660Y77D02*
X667Y77D01*
X0Y76D02*
X7Y76D01*
X233Y76D02*
X242Y76D01*
X410Y76D02*
X416Y76D01*
X432Y76D02*
X441Y76D01*
X660Y76D02*
X667Y76D01*
X0Y75D02*
X7Y75D01*
X233Y75D02*
X242Y75D01*
X410Y75D02*
X417Y75D01*
X432Y75D02*
X441Y75D01*
X660Y75D02*
X667Y75D01*
X0Y74D02*
X7Y74D01*
X233Y74D02*
X242Y74D01*
X411Y74D02*
X418Y74D01*
X432Y74D02*
X441Y74D01*
X660Y74D02*
X667Y74D01*
X0Y73D02*
X7Y73D01*
X233Y73D02*
X242Y73D01*
X412Y73D02*
X419Y73D01*
X432Y73D02*
X441Y73D01*
X660Y73D02*
X667Y73D01*
X0Y72D02*
X7Y72D01*
X233Y72D02*
X242Y72D01*
X413Y72D02*
X420Y72D01*
X432Y72D02*
X441Y72D01*
X660Y72D02*
X667Y72D01*
X0Y71D02*
X7Y71D01*
X233Y71D02*
X242Y71D01*
X414Y71D02*
X421Y71D01*
X432Y71D02*
X441Y71D01*
X660Y71D02*
X667Y71D01*
X0Y70D02*
X7Y70D01*
X233Y70D02*
X242Y70D01*
X415Y70D02*
X422Y70D01*
X432Y70D02*
X441Y70D01*
X660Y70D02*
X667Y70D01*
X0Y69D02*
X7Y69D01*
X233Y69D02*
X242Y69D01*
X416Y69D02*
X423Y69D01*
X432Y69D02*
X441Y69D01*
X660Y69D02*
X667Y69D01*
X0Y68D02*
X7Y68D01*
X233Y68D02*
X242Y68D01*
X417Y68D02*
X424Y68D01*
X432Y68D02*
X441Y68D01*
X660Y68D02*
X667Y68D01*
X0Y67D02*
X7Y67D01*
X233Y67D02*
X242Y67D01*
X418Y67D02*
X425Y67D01*
X432Y67D02*
X441Y67D01*
X660Y67D02*
X667Y67D01*
X0Y66D02*
X7Y66D01*
X233Y66D02*
X242Y66D01*
X419Y66D02*
X426Y66D01*
X432Y66D02*
X441Y66D01*
X660Y66D02*
X667Y66D01*
X0Y65D02*
X7Y65D01*
X233Y65D02*
X242Y65D01*
X420Y65D02*
X427Y65D01*
X432Y65D02*
X441Y65D01*
X660Y65D02*
X667Y65D01*
X0Y64D02*
X7Y64D01*
X233Y64D02*
X242Y64D01*
X421Y64D02*
X428Y64D01*
X432Y64D02*
X441Y64D01*
X660Y64D02*
X667Y64D01*
X0Y63D02*
X7Y63D01*
X233Y63D02*
X242Y63D01*
X422Y63D02*
X429Y63D01*
X432Y63D02*
X441Y63D01*
X660Y63D02*
X667Y63D01*
X0Y62D02*
X7Y62D01*
X233Y62D02*
X242Y62D01*
X423Y62D02*
X430Y62D01*
X432Y62D02*
X441Y62D01*
X660Y62D02*
X667Y62D01*
X0Y61D02*
X7Y61D01*
X233Y61D02*
X242Y61D01*
X424Y61D02*
X441Y61D01*
X660Y61D02*
X667Y61D01*
X0Y60D02*
X7Y60D01*
X233Y60D02*
X242Y60D01*
X425Y60D02*
X441Y60D01*
X660Y60D02*
X667Y60D01*
X0Y59D02*
X7Y59D01*
X233Y59D02*
X242Y59D01*
X426Y59D02*
X441Y59D01*
X660Y59D02*
X667Y59D01*
X0Y58D02*
X7Y58D01*
X233Y58D02*
X242Y58D01*
X427Y58D02*
X441Y58D01*
X660Y58D02*
X667Y58D01*
X0Y57D02*
X7Y57D01*
X233Y57D02*
X242Y57D01*
X428Y57D02*
X441Y57D01*
X660Y57D02*
X667Y57D01*
X0Y56D02*
X7Y56D01*
X233Y56D02*
X242Y56D01*
X429Y56D02*
X441Y56D01*
X660Y56D02*
X667Y56D01*
X0Y55D02*
X7Y55D01*
X233Y55D02*
X242Y55D01*
X430Y55D02*
X441Y55D01*
X660Y55D02*
X667Y55D01*
X0Y54D02*
X7Y54D01*
X233Y54D02*
X242Y54D01*
X431Y54D02*
X441Y54D01*
X660Y54D02*
X667Y54D01*
X0Y53D02*
X7Y53D01*
X233Y53D02*
X242Y53D01*
X432Y53D02*
X441Y53D01*
X660Y53D02*
X667Y53D01*
X0Y52D02*
X7Y52D01*
X233Y52D02*
X242Y52D01*
X432Y52D02*
X441Y52D01*
X660Y52D02*
X667Y52D01*
X0Y51D02*
X7Y51D01*
X233Y51D02*
X242Y51D01*
X432Y51D02*
X441Y51D01*
X660Y51D02*
X667Y51D01*
X0Y50D02*
X7Y50D01*
X233Y50D02*
X242Y50D01*
X432Y50D02*
X441Y50D01*
X660Y50D02*
X667Y50D01*
X0Y49D02*
X7Y49D01*
X233Y49D02*
X242Y49D01*
X432Y49D02*
X441Y49D01*
X660Y49D02*
X667Y49D01*
X0Y48D02*
X7Y48D01*
X233Y48D02*
X242Y48D01*
X432Y48D02*
X441Y48D01*
X660Y48D02*
X667Y48D01*
X0Y47D02*
X7Y47D01*
X233Y47D02*
X242Y47D01*
X432Y47D02*
X441Y47D01*
X660Y47D02*
X667Y47D01*
X0Y46D02*
X7Y46D01*
X233Y46D02*
X242Y46D01*
X432Y46D02*
X441Y46D01*
X660Y46D02*
X667Y46D01*
X0Y45D02*
X7Y45D01*
X233Y45D02*
X242Y45D01*
X432Y45D02*
X441Y45D01*
X660Y45D02*
X667Y45D01*
X0Y44D02*
X7Y44D01*
X233Y44D02*
X242Y44D01*
X432Y44D02*
X441Y44D01*
X660Y44D02*
X667Y44D01*
X0Y43D02*
X7Y43D01*
X233Y43D02*
X242Y43D01*
X432Y43D02*
X441Y43D01*
X660Y43D02*
X667Y43D01*
X0Y42D02*
X7Y42D01*
X233Y42D02*
X242Y42D01*
X432Y42D02*
X441Y42D01*
X660Y42D02*
X667Y42D01*
X0Y41D02*
X7Y41D01*
X233Y41D02*
X242Y41D01*
X432Y41D02*
X441Y41D01*
X660Y41D02*
X667Y41D01*
X0Y40D02*
X7Y40D01*
X233Y40D02*
X242Y40D01*
X432Y40D02*
X441Y40D01*
X660Y40D02*
X667Y40D01*
X0Y39D02*
X7Y39D01*
X233Y39D02*
X242Y39D01*
X432Y39D02*
X441Y39D01*
X660Y39D02*
X667Y39D01*
X0Y38D02*
X7Y38D01*
X233Y38D02*
X242Y38D01*
X432Y38D02*
X441Y38D01*
X660Y38D02*
X667Y38D01*
X0Y37D02*
X7Y37D01*
X233Y37D02*
X242Y37D01*
X432Y37D02*
X441Y37D01*
X660Y37D02*
X667Y37D01*
X0Y36D02*
X7Y36D01*
X233Y36D02*
X242Y36D01*
X432Y36D02*
X441Y36D01*
X660Y36D02*
X667Y36D01*
X0Y35D02*
X7Y35D01*
X233Y35D02*
X262Y35D01*
X312Y35D02*
X312Y35D01*
X362Y35D02*
X362Y35D01*
X412Y35D02*
X441Y35D01*
X660Y35D02*
X667Y35D01*
X0Y34D02*
X7Y34D01*
X233Y34D02*
X262Y34D01*
X312Y34D02*
X312Y34D01*
X362Y34D02*
X362Y34D01*
X412Y34D02*
X441Y34D01*
X660Y34D02*
X667Y34D01*
X0Y33D02*
X7Y33D01*
X233Y33D02*
X262Y33D01*
X312Y33D02*
X312Y33D01*
X362Y33D02*
X362Y33D01*
X412Y33D02*
X441Y33D01*
X660Y33D02*
X667Y33D01*
X0Y32D02*
X7Y32D01*
X233Y32D02*
X262Y32D01*
X312Y32D02*
X312Y32D01*
X362Y32D02*
X362Y32D01*
X412Y32D02*
X441Y32D01*
X660Y32D02*
X667Y32D01*
X0Y31D02*
X7Y31D01*
X233Y31D02*
X263Y31D01*
X311Y31D02*
X313Y31D01*
X361Y31D02*
X363Y31D01*
X411Y31D02*
X441Y31D01*
X660Y31D02*
X667Y31D01*
X0Y30D02*
X7Y30D01*
X233Y30D02*
X263Y30D01*
X311Y30D02*
X313Y30D01*
X361Y30D02*
X363Y30D01*
X411Y30D02*
X441Y30D01*
X660Y30D02*
X667Y30D01*
X0Y29D02*
X7Y29D01*
X233Y29D02*
X263Y29D01*
X311Y29D02*
X313Y29D01*
X361Y29D02*
X363Y29D01*
X411Y29D02*
X441Y29D01*
X660Y29D02*
X667Y29D01*
X0Y28D02*
X7Y28D01*
X233Y28D02*
X264Y28D01*
X310Y28D02*
X314Y28D01*
X360Y28D02*
X364Y28D01*
X410Y28D02*
X441Y28D01*
X660Y28D02*
X667Y28D01*
X0Y27D02*
X7Y27D01*
X233Y27D02*
X264Y27D01*
X310Y27D02*
X314Y27D01*
X360Y27D02*
X364Y27D01*
X410Y27D02*
X441Y27D01*
X660Y27D02*
X667Y27D01*
X0Y26D02*
X7Y26D01*
X233Y26D02*
X265Y26D01*
X309Y26D02*
X315Y26D01*
X359Y26D02*
X365Y26D01*
X409Y26D02*
X441Y26D01*
X660Y26D02*
X667Y26D01*
X0Y25D02*
X7Y25D01*
X233Y25D02*
X242Y25D01*
X432Y25D02*
X441Y25D01*
X660Y25D02*
X667Y25D01*
X0Y24D02*
X7Y24D01*
X233Y24D02*
X242Y24D01*
X432Y24D02*
X441Y24D01*
X660Y24D02*
X667Y24D01*
X0Y23D02*
X7Y23D01*
X233Y23D02*
X242Y23D01*
X432Y23D02*
X441Y23D01*
X660Y23D02*
X667Y23D01*
X0Y22D02*
X7Y22D01*
X233Y22D02*
X242Y22D01*
X432Y22D02*
X441Y22D01*
X660Y22D02*
X667Y22D01*
X0Y21D02*
X7Y21D01*
X233Y21D02*
X242Y21D01*
X432Y21D02*
X441Y21D01*
X660Y21D02*
X667Y21D01*
X0Y20D02*
X7Y20D01*
X233Y20D02*
X242Y20D01*
X432Y20D02*
X441Y20D01*
X660Y20D02*
X667Y20D01*
X0Y19D02*
X7Y19D01*
X233Y19D02*
X242Y19D01*
X432Y19D02*
X441Y19D01*
X660Y19D02*
X667Y19D01*
X0Y18D02*
X7Y18D01*
X233Y18D02*
X242Y18D01*
X432Y18D02*
X441Y18D01*
X660Y18D02*
X667Y18D01*
X0Y17D02*
X7Y17D01*
X233Y17D02*
X242Y17D01*
X432Y17D02*
X441Y17D01*
X660Y17D02*
X667Y17D01*
X0Y16D02*
X7Y16D01*
X233Y16D02*
X242Y16D01*
X432Y16D02*
X441Y16D01*
X660Y16D02*
X667Y16D01*
X0Y15D02*
X7Y15D01*
X233Y15D02*
X242Y15D01*
X432Y15D02*
X441Y15D01*
X660Y15D02*
X667Y15D01*
X0Y14D02*
X7Y14D01*
X233Y14D02*
X242Y14D01*
X432Y14D02*
X441Y14D01*
X660Y14D02*
X667Y14D01*
X0Y13D02*
X7Y13D01*
X233Y13D02*
X242Y13D01*
X432Y13D02*
X441Y13D01*
X660Y13D02*
X667Y13D01*
X0Y12D02*
X7Y12D01*
X233Y12D02*
X242Y12D01*
X432Y12D02*
X441Y12D01*
X660Y12D02*
X667Y12D01*
X0Y11D02*
X7Y11D01*
X233Y11D02*
X242Y11D01*
X432Y11D02*
X441Y11D01*
X660Y11D02*
X667Y11D01*
X0Y10D02*
X7Y10D01*
X233Y10D02*
X242Y10D01*
X432Y10D02*
X441Y10D01*
X660Y10D02*
X667Y10D01*
X0Y9D02*
X667Y9D01*
X0Y8D02*
X667Y8D01*
X0Y7D02*
X667Y7D01*
X0Y6D02*
X667Y6D01*
X0Y5D02*
X667Y5D01*
X0Y4D02*
X667Y4D01*
X0Y3D02*
X667Y3D01*
X0Y2D02*
X667Y2D01*
X233Y1D02*
X242Y1D01*
X432Y1D02*
X441Y1D01*
X233Y0D02*
X242Y0D01*
X432Y0D02*
X441Y0D01*
D02*
G04 End of Silk1*
M02*