G04 MADE WITH FRITZING*
G04 WWW.FRITZING.ORG*
G04 DOUBLE SIDED*
G04 HOLES PLATED*
G04 CONTOUR ON CENTER OF CONTOUR VECTOR*
%ASAXBY*%
%FSLAX23Y23*%
%MOIN*%
%OFA0B0*%
%SFA1.0B1.0*%
%ADD10C,0.075000*%
%ADD11C,0.039370*%
%ADD12R,0.047244X0.078740*%
%ADD13R,0.039370X0.059055*%
%ADD14C,0.024000*%
%LNCOPPER0*%
G90*
G70*
G54D10*
X279Y437D03*
G54D11*
X388Y35D03*
X338Y35D03*
X288Y35D03*
X386Y80D03*
X336Y80D03*
X286Y80D03*
X130Y327D03*
X448Y327D03*
G54D12*
X130Y246D03*
X130Y136D03*
X44Y136D03*
X44Y246D03*
G54D13*
X92Y365D03*
X43Y443D03*
X86Y73D03*
G54D14*
X130Y308D02*
X130Y280D01*
D02*
X144Y376D02*
X141Y419D01*
D02*
X191Y327D02*
X144Y376D01*
D02*
X117Y440D02*
X57Y442D01*
D02*
X141Y419D02*
X117Y440D01*
D02*
X429Y327D02*
X191Y327D01*
D02*
X113Y32D02*
X101Y52D01*
D02*
X265Y35D02*
X113Y32D01*
D02*
X112Y110D02*
X101Y94D01*
D02*
X117Y340D02*
X106Y351D01*
D02*
X72Y94D02*
X62Y109D01*
D02*
X43Y419D02*
X44Y280D01*
G36*
X202Y507D02*
X202Y383D01*
X204Y383D01*
X204Y381D01*
X206Y381D01*
X206Y379D01*
X464Y379D01*
X464Y377D01*
X468Y377D01*
X468Y375D01*
X472Y375D01*
X472Y373D01*
X476Y373D01*
X476Y371D01*
X478Y371D01*
X478Y369D01*
X482Y369D01*
X482Y367D01*
X484Y367D01*
X484Y365D01*
X486Y365D01*
X486Y363D01*
X488Y363D01*
X488Y361D01*
X490Y361D01*
X490Y357D01*
X492Y357D01*
X492Y355D01*
X494Y355D01*
X494Y351D01*
X496Y351D01*
X496Y347D01*
X498Y347D01*
X498Y341D01*
X500Y341D01*
X500Y315D01*
X498Y315D01*
X498Y309D01*
X496Y309D01*
X496Y305D01*
X494Y305D01*
X494Y301D01*
X492Y301D01*
X492Y297D01*
X490Y297D01*
X490Y295D01*
X488Y295D01*
X488Y293D01*
X486Y293D01*
X486Y291D01*
X484Y291D01*
X484Y289D01*
X482Y289D01*
X482Y287D01*
X480Y287D01*
X480Y285D01*
X478Y285D01*
X478Y283D01*
X474Y283D01*
X474Y281D01*
X470Y281D01*
X470Y279D01*
X466Y279D01*
X466Y277D01*
X458Y277D01*
X458Y275D01*
X628Y275D01*
X628Y507D01*
X202Y507D01*
G37*
D02*
G36*
X208Y379D02*
X208Y377D01*
X210Y377D01*
X210Y375D01*
X212Y375D01*
X212Y373D01*
X214Y373D01*
X214Y371D01*
X420Y371D01*
X420Y373D01*
X424Y373D01*
X424Y375D01*
X428Y375D01*
X428Y377D01*
X432Y377D01*
X432Y379D01*
X208Y379D01*
G37*
D02*
G36*
X202Y283D02*
X202Y275D01*
X438Y275D01*
X438Y277D01*
X430Y277D01*
X430Y279D01*
X426Y279D01*
X426Y281D01*
X422Y281D01*
X422Y283D01*
X202Y283D01*
G37*
D02*
G36*
X202Y275D02*
X202Y273D01*
X628Y273D01*
X628Y275D01*
X202Y275D01*
G37*
D02*
G36*
X202Y275D02*
X202Y273D01*
X628Y273D01*
X628Y275D01*
X202Y275D01*
G37*
D02*
G36*
X202Y273D02*
X202Y129D01*
X402Y129D01*
X402Y127D01*
X408Y127D01*
X408Y125D01*
X412Y125D01*
X412Y123D01*
X414Y123D01*
X414Y121D01*
X418Y121D01*
X418Y119D01*
X420Y119D01*
X420Y117D01*
X422Y117D01*
X422Y115D01*
X424Y115D01*
X424Y113D01*
X426Y113D01*
X426Y109D01*
X428Y109D01*
X428Y107D01*
X430Y107D01*
X430Y105D01*
X432Y105D01*
X432Y101D01*
X434Y101D01*
X434Y95D01*
X436Y95D01*
X436Y43D01*
X438Y43D01*
X438Y41D01*
X628Y41D01*
X628Y273D01*
X202Y273D01*
G37*
D02*
G36*
X202Y129D02*
X202Y41D01*
X238Y41D01*
X238Y69D01*
X236Y69D01*
X236Y91D01*
X238Y91D01*
X238Y97D01*
X240Y97D01*
X240Y103D01*
X242Y103D01*
X242Y105D01*
X244Y105D01*
X244Y109D01*
X246Y109D01*
X246Y111D01*
X248Y111D01*
X248Y113D01*
X250Y113D01*
X250Y115D01*
X252Y115D01*
X252Y117D01*
X254Y117D01*
X254Y119D01*
X256Y119D01*
X256Y121D01*
X258Y121D01*
X258Y123D01*
X262Y123D01*
X262Y125D01*
X266Y125D01*
X266Y127D01*
X270Y127D01*
X270Y129D01*
X202Y129D01*
G37*
D02*
G04 End of Copper0*
M02*