G04 MADE WITH FRITZING*
G04 WWW.FRITZING.ORG*
G04 DOUBLE SIDED*
G04 HOLES PLATED*
G04 CONTOUR ON CENTER OF CONTOUR VECTOR*
%ASAXBY*%
%FSLAX23Y23*%
%MOIN*%
%OFA0B0*%
%SFA1.0B1.0*%
%ADD10R,0.001000X0.001000*%
%LNSILK0*%
G90*
G70*
G54D10*
X0Y551D02*
X667Y551D01*
X0Y550D02*
X667Y550D01*
X0Y549D02*
X667Y549D01*
X0Y548D02*
X667Y548D01*
X0Y547D02*
X667Y547D01*
X0Y546D02*
X667Y546D01*
X0Y545D02*
X667Y545D01*
X0Y544D02*
X667Y544D01*
X0Y543D02*
X7Y543D01*
X660Y543D02*
X667Y543D01*
X0Y542D02*
X7Y542D01*
X660Y542D02*
X667Y542D01*
X0Y541D02*
X7Y541D01*
X660Y541D02*
X667Y541D01*
X0Y540D02*
X7Y540D01*
X660Y540D02*
X667Y540D01*
X0Y539D02*
X7Y539D01*
X660Y539D02*
X667Y539D01*
X0Y538D02*
X7Y538D01*
X660Y538D02*
X667Y538D01*
X0Y537D02*
X7Y537D01*
X660Y537D02*
X667Y537D01*
X0Y536D02*
X7Y536D01*
X660Y536D02*
X667Y536D01*
X0Y535D02*
X7Y535D01*
X660Y535D02*
X667Y535D01*
X0Y534D02*
X7Y534D01*
X660Y534D02*
X667Y534D01*
X0Y533D02*
X7Y533D01*
X660Y533D02*
X667Y533D01*
X0Y532D02*
X7Y532D01*
X660Y532D02*
X667Y532D01*
X0Y531D02*
X7Y531D01*
X660Y531D02*
X667Y531D01*
X0Y530D02*
X7Y530D01*
X660Y530D02*
X667Y530D01*
X0Y529D02*
X7Y529D01*
X660Y529D02*
X667Y529D01*
X0Y528D02*
X7Y528D01*
X660Y528D02*
X667Y528D01*
X0Y527D02*
X7Y527D01*
X660Y527D02*
X667Y527D01*
X0Y526D02*
X7Y526D01*
X660Y526D02*
X667Y526D01*
X0Y525D02*
X7Y525D01*
X660Y525D02*
X667Y525D01*
X0Y524D02*
X7Y524D01*
X660Y524D02*
X667Y524D01*
X0Y523D02*
X7Y523D01*
X660Y523D02*
X667Y523D01*
X0Y522D02*
X7Y522D01*
X660Y522D02*
X667Y522D01*
X0Y521D02*
X7Y521D01*
X660Y521D02*
X667Y521D01*
X0Y520D02*
X7Y520D01*
X660Y520D02*
X667Y520D01*
X0Y519D02*
X7Y519D01*
X660Y519D02*
X667Y519D01*
X0Y518D02*
X7Y518D01*
X660Y518D02*
X667Y518D01*
X0Y517D02*
X7Y517D01*
X660Y517D02*
X667Y517D01*
X0Y516D02*
X7Y516D01*
X660Y516D02*
X667Y516D01*
X0Y515D02*
X7Y515D01*
X660Y515D02*
X667Y515D01*
X0Y514D02*
X7Y514D01*
X660Y514D02*
X667Y514D01*
X0Y513D02*
X7Y513D01*
X660Y513D02*
X667Y513D01*
X0Y512D02*
X7Y512D01*
X660Y512D02*
X667Y512D01*
X0Y511D02*
X7Y511D01*
X660Y511D02*
X667Y511D01*
X0Y510D02*
X7Y510D01*
X660Y510D02*
X667Y510D01*
X0Y509D02*
X7Y509D01*
X660Y509D02*
X667Y509D01*
X0Y508D02*
X7Y508D01*
X660Y508D02*
X667Y508D01*
X0Y507D02*
X7Y507D01*
X660Y507D02*
X667Y507D01*
X0Y506D02*
X7Y506D01*
X660Y506D02*
X667Y506D01*
X0Y505D02*
X7Y505D01*
X660Y505D02*
X667Y505D01*
X0Y504D02*
X7Y504D01*
X660Y504D02*
X667Y504D01*
X0Y503D02*
X7Y503D01*
X660Y503D02*
X667Y503D01*
X0Y502D02*
X7Y502D01*
X660Y502D02*
X667Y502D01*
X0Y501D02*
X7Y501D01*
X660Y501D02*
X667Y501D01*
X0Y500D02*
X7Y500D01*
X660Y500D02*
X667Y500D01*
X0Y499D02*
X7Y499D01*
X660Y499D02*
X667Y499D01*
X0Y498D02*
X7Y498D01*
X660Y498D02*
X667Y498D01*
X0Y497D02*
X7Y497D01*
X660Y497D02*
X667Y497D01*
X0Y496D02*
X7Y496D01*
X660Y496D02*
X667Y496D01*
X0Y495D02*
X7Y495D01*
X660Y495D02*
X667Y495D01*
X0Y494D02*
X7Y494D01*
X660Y494D02*
X667Y494D01*
X0Y493D02*
X7Y493D01*
X660Y493D02*
X667Y493D01*
X0Y492D02*
X7Y492D01*
X660Y492D02*
X667Y492D01*
X0Y491D02*
X7Y491D01*
X660Y491D02*
X667Y491D01*
X0Y490D02*
X7Y490D01*
X660Y490D02*
X667Y490D01*
X0Y489D02*
X7Y489D01*
X660Y489D02*
X667Y489D01*
X0Y488D02*
X7Y488D01*
X660Y488D02*
X667Y488D01*
X0Y487D02*
X7Y487D01*
X660Y487D02*
X667Y487D01*
X0Y486D02*
X7Y486D01*
X660Y486D02*
X667Y486D01*
X0Y485D02*
X7Y485D01*
X660Y485D02*
X667Y485D01*
X0Y484D02*
X7Y484D01*
X660Y484D02*
X667Y484D01*
X0Y483D02*
X7Y483D01*
X660Y483D02*
X667Y483D01*
X0Y482D02*
X7Y482D01*
X660Y482D02*
X667Y482D01*
X0Y481D02*
X7Y481D01*
X660Y481D02*
X667Y481D01*
X0Y480D02*
X7Y480D01*
X660Y480D02*
X667Y480D01*
X0Y479D02*
X7Y479D01*
X660Y479D02*
X667Y479D01*
X0Y478D02*
X7Y478D01*
X660Y478D02*
X667Y478D01*
X0Y477D02*
X7Y477D01*
X660Y477D02*
X667Y477D01*
X0Y476D02*
X7Y476D01*
X660Y476D02*
X667Y476D01*
X0Y475D02*
X7Y475D01*
X660Y475D02*
X667Y475D01*
X0Y474D02*
X7Y474D01*
X660Y474D02*
X667Y474D01*
X0Y473D02*
X7Y473D01*
X660Y473D02*
X667Y473D01*
X0Y472D02*
X7Y472D01*
X660Y472D02*
X667Y472D01*
X0Y471D02*
X7Y471D01*
X660Y471D02*
X667Y471D01*
X0Y470D02*
X7Y470D01*
X660Y470D02*
X667Y470D01*
X0Y469D02*
X7Y469D01*
X660Y469D02*
X667Y469D01*
X0Y468D02*
X7Y468D01*
X660Y468D02*
X667Y468D01*
X0Y467D02*
X7Y467D01*
X660Y467D02*
X667Y467D01*
X0Y466D02*
X7Y466D01*
X660Y466D02*
X667Y466D01*
X0Y465D02*
X7Y465D01*
X660Y465D02*
X667Y465D01*
X0Y464D02*
X7Y464D01*
X660Y464D02*
X667Y464D01*
X0Y463D02*
X7Y463D01*
X660Y463D02*
X667Y463D01*
X0Y462D02*
X7Y462D01*
X660Y462D02*
X667Y462D01*
X0Y461D02*
X7Y461D01*
X660Y461D02*
X667Y461D01*
X0Y460D02*
X7Y460D01*
X660Y460D02*
X667Y460D01*
X0Y459D02*
X7Y459D01*
X660Y459D02*
X667Y459D01*
X0Y458D02*
X7Y458D01*
X660Y458D02*
X667Y458D01*
X0Y457D02*
X7Y457D01*
X660Y457D02*
X667Y457D01*
X0Y456D02*
X7Y456D01*
X660Y456D02*
X667Y456D01*
X0Y455D02*
X7Y455D01*
X660Y455D02*
X667Y455D01*
X0Y454D02*
X7Y454D01*
X660Y454D02*
X667Y454D01*
X0Y453D02*
X7Y453D01*
X660Y453D02*
X667Y453D01*
X0Y452D02*
X7Y452D01*
X660Y452D02*
X667Y452D01*
X0Y451D02*
X7Y451D01*
X660Y451D02*
X667Y451D01*
X0Y450D02*
X7Y450D01*
X660Y450D02*
X667Y450D01*
X0Y449D02*
X7Y449D01*
X660Y449D02*
X667Y449D01*
X0Y448D02*
X7Y448D01*
X660Y448D02*
X667Y448D01*
X0Y447D02*
X7Y447D01*
X660Y447D02*
X667Y447D01*
X0Y446D02*
X7Y446D01*
X660Y446D02*
X667Y446D01*
X0Y445D02*
X7Y445D01*
X660Y445D02*
X667Y445D01*
X0Y444D02*
X7Y444D01*
X660Y444D02*
X667Y444D01*
X0Y443D02*
X7Y443D01*
X660Y443D02*
X667Y443D01*
X0Y442D02*
X7Y442D01*
X660Y442D02*
X667Y442D01*
X0Y441D02*
X7Y441D01*
X660Y441D02*
X667Y441D01*
X0Y440D02*
X7Y440D01*
X660Y440D02*
X667Y440D01*
X0Y439D02*
X7Y439D01*
X660Y439D02*
X667Y439D01*
X0Y438D02*
X7Y438D01*
X660Y438D02*
X667Y438D01*
X0Y437D02*
X7Y437D01*
X660Y437D02*
X667Y437D01*
X0Y436D02*
X7Y436D01*
X660Y436D02*
X667Y436D01*
X0Y435D02*
X7Y435D01*
X660Y435D02*
X667Y435D01*
X0Y434D02*
X7Y434D01*
X660Y434D02*
X667Y434D01*
X0Y433D02*
X7Y433D01*
X660Y433D02*
X667Y433D01*
X0Y432D02*
X7Y432D01*
X660Y432D02*
X667Y432D01*
X0Y431D02*
X7Y431D01*
X660Y431D02*
X667Y431D01*
X0Y430D02*
X7Y430D01*
X660Y430D02*
X667Y430D01*
X0Y429D02*
X7Y429D01*
X660Y429D02*
X667Y429D01*
X0Y428D02*
X7Y428D01*
X660Y428D02*
X667Y428D01*
X0Y427D02*
X7Y427D01*
X660Y427D02*
X667Y427D01*
X0Y426D02*
X7Y426D01*
X660Y426D02*
X667Y426D01*
X0Y425D02*
X7Y425D01*
X660Y425D02*
X667Y425D01*
X0Y424D02*
X7Y424D01*
X660Y424D02*
X667Y424D01*
X0Y423D02*
X7Y423D01*
X660Y423D02*
X667Y423D01*
X0Y422D02*
X7Y422D01*
X660Y422D02*
X667Y422D01*
X0Y421D02*
X7Y421D01*
X660Y421D02*
X667Y421D01*
X0Y420D02*
X7Y420D01*
X660Y420D02*
X667Y420D01*
X0Y419D02*
X7Y419D01*
X660Y419D02*
X667Y419D01*
X0Y418D02*
X7Y418D01*
X660Y418D02*
X667Y418D01*
X0Y417D02*
X7Y417D01*
X660Y417D02*
X667Y417D01*
X0Y416D02*
X7Y416D01*
X660Y416D02*
X667Y416D01*
X0Y415D02*
X7Y415D01*
X660Y415D02*
X667Y415D01*
X0Y414D02*
X7Y414D01*
X660Y414D02*
X667Y414D01*
X0Y413D02*
X7Y413D01*
X660Y413D02*
X667Y413D01*
X0Y412D02*
X7Y412D01*
X660Y412D02*
X667Y412D01*
X0Y411D02*
X7Y411D01*
X660Y411D02*
X667Y411D01*
X0Y410D02*
X7Y410D01*
X660Y410D02*
X667Y410D01*
X0Y409D02*
X7Y409D01*
X660Y409D02*
X667Y409D01*
X0Y408D02*
X7Y408D01*
X660Y408D02*
X667Y408D01*
X0Y407D02*
X7Y407D01*
X660Y407D02*
X667Y407D01*
X0Y406D02*
X7Y406D01*
X660Y406D02*
X667Y406D01*
X0Y405D02*
X7Y405D01*
X660Y405D02*
X667Y405D01*
X0Y404D02*
X7Y404D01*
X660Y404D02*
X667Y404D01*
X0Y403D02*
X7Y403D01*
X660Y403D02*
X667Y403D01*
X0Y402D02*
X7Y402D01*
X660Y402D02*
X667Y402D01*
X0Y401D02*
X7Y401D01*
X660Y401D02*
X667Y401D01*
X0Y400D02*
X7Y400D01*
X660Y400D02*
X667Y400D01*
X0Y399D02*
X7Y399D01*
X660Y399D02*
X667Y399D01*
X0Y398D02*
X7Y398D01*
X660Y398D02*
X667Y398D01*
X0Y397D02*
X7Y397D01*
X660Y397D02*
X667Y397D01*
X0Y396D02*
X7Y396D01*
X660Y396D02*
X667Y396D01*
X0Y395D02*
X7Y395D01*
X660Y395D02*
X667Y395D01*
X0Y394D02*
X7Y394D01*
X660Y394D02*
X667Y394D01*
X0Y393D02*
X7Y393D01*
X660Y393D02*
X667Y393D01*
X0Y392D02*
X7Y392D01*
X660Y392D02*
X667Y392D01*
X0Y391D02*
X7Y391D01*
X660Y391D02*
X667Y391D01*
X0Y390D02*
X7Y390D01*
X660Y390D02*
X667Y390D01*
X0Y389D02*
X7Y389D01*
X660Y389D02*
X667Y389D01*
X0Y388D02*
X7Y388D01*
X660Y388D02*
X667Y388D01*
X0Y387D02*
X7Y387D01*
X660Y387D02*
X667Y387D01*
X0Y386D02*
X7Y386D01*
X660Y386D02*
X667Y386D01*
X0Y385D02*
X7Y385D01*
X660Y385D02*
X667Y385D01*
X0Y384D02*
X7Y384D01*
X660Y384D02*
X667Y384D01*
X0Y383D02*
X7Y383D01*
X660Y383D02*
X667Y383D01*
X0Y382D02*
X7Y382D01*
X660Y382D02*
X667Y382D01*
X0Y381D02*
X7Y381D01*
X660Y381D02*
X667Y381D01*
X0Y380D02*
X7Y380D01*
X660Y380D02*
X667Y380D01*
X0Y379D02*
X7Y379D01*
X660Y379D02*
X667Y379D01*
X0Y378D02*
X7Y378D01*
X660Y378D02*
X667Y378D01*
X0Y377D02*
X7Y377D01*
X660Y377D02*
X667Y377D01*
X0Y376D02*
X7Y376D01*
X660Y376D02*
X667Y376D01*
X0Y375D02*
X7Y375D01*
X660Y375D02*
X667Y375D01*
X0Y374D02*
X7Y374D01*
X660Y374D02*
X667Y374D01*
X0Y373D02*
X7Y373D01*
X660Y373D02*
X667Y373D01*
X0Y372D02*
X7Y372D01*
X660Y372D02*
X667Y372D01*
X0Y371D02*
X7Y371D01*
X660Y371D02*
X667Y371D01*
X0Y370D02*
X7Y370D01*
X660Y370D02*
X667Y370D01*
X0Y369D02*
X7Y369D01*
X660Y369D02*
X667Y369D01*
X0Y368D02*
X7Y368D01*
X660Y368D02*
X667Y368D01*
X0Y367D02*
X7Y367D01*
X660Y367D02*
X667Y367D01*
X0Y366D02*
X7Y366D01*
X660Y366D02*
X667Y366D01*
X0Y365D02*
X7Y365D01*
X660Y365D02*
X667Y365D01*
X0Y364D02*
X7Y364D01*
X660Y364D02*
X667Y364D01*
X0Y363D02*
X7Y363D01*
X660Y363D02*
X667Y363D01*
X0Y362D02*
X7Y362D01*
X660Y362D02*
X667Y362D01*
X0Y361D02*
X7Y361D01*
X660Y361D02*
X667Y361D01*
X0Y360D02*
X7Y360D01*
X660Y360D02*
X667Y360D01*
X0Y359D02*
X7Y359D01*
X660Y359D02*
X667Y359D01*
X0Y358D02*
X7Y358D01*
X660Y358D02*
X667Y358D01*
X0Y357D02*
X7Y357D01*
X660Y357D02*
X667Y357D01*
X0Y356D02*
X7Y356D01*
X660Y356D02*
X667Y356D01*
X0Y355D02*
X7Y355D01*
X660Y355D02*
X667Y355D01*
X0Y354D02*
X7Y354D01*
X660Y354D02*
X667Y354D01*
X0Y353D02*
X7Y353D01*
X660Y353D02*
X667Y353D01*
X0Y352D02*
X7Y352D01*
X660Y352D02*
X667Y352D01*
X0Y351D02*
X7Y351D01*
X660Y351D02*
X667Y351D01*
X0Y350D02*
X7Y350D01*
X660Y350D02*
X667Y350D01*
X0Y349D02*
X7Y349D01*
X660Y349D02*
X667Y349D01*
X0Y348D02*
X7Y348D01*
X660Y348D02*
X667Y348D01*
X0Y347D02*
X7Y347D01*
X660Y347D02*
X667Y347D01*
X0Y346D02*
X7Y346D01*
X660Y346D02*
X667Y346D01*
X0Y345D02*
X7Y345D01*
X660Y345D02*
X667Y345D01*
X0Y344D02*
X7Y344D01*
X660Y344D02*
X667Y344D01*
X0Y343D02*
X7Y343D01*
X660Y343D02*
X667Y343D01*
X0Y342D02*
X7Y342D01*
X660Y342D02*
X667Y342D01*
X0Y341D02*
X7Y341D01*
X660Y341D02*
X667Y341D01*
X0Y340D02*
X7Y340D01*
X660Y340D02*
X667Y340D01*
X0Y339D02*
X7Y339D01*
X660Y339D02*
X667Y339D01*
X0Y338D02*
X7Y338D01*
X660Y338D02*
X667Y338D01*
X0Y337D02*
X7Y337D01*
X660Y337D02*
X667Y337D01*
X0Y336D02*
X7Y336D01*
X660Y336D02*
X667Y336D01*
X0Y335D02*
X7Y335D01*
X660Y335D02*
X667Y335D01*
X0Y334D02*
X7Y334D01*
X660Y334D02*
X667Y334D01*
X0Y333D02*
X7Y333D01*
X660Y333D02*
X667Y333D01*
X0Y332D02*
X7Y332D01*
X660Y332D02*
X667Y332D01*
X0Y331D02*
X7Y331D01*
X660Y331D02*
X667Y331D01*
X0Y330D02*
X7Y330D01*
X660Y330D02*
X667Y330D01*
X0Y329D02*
X7Y329D01*
X660Y329D02*
X667Y329D01*
X0Y328D02*
X7Y328D01*
X660Y328D02*
X667Y328D01*
X0Y327D02*
X7Y327D01*
X660Y327D02*
X667Y327D01*
X0Y326D02*
X7Y326D01*
X660Y326D02*
X667Y326D01*
X0Y325D02*
X7Y325D01*
X660Y325D02*
X667Y325D01*
X0Y324D02*
X7Y324D01*
X660Y324D02*
X667Y324D01*
X0Y323D02*
X7Y323D01*
X660Y323D02*
X667Y323D01*
X0Y322D02*
X7Y322D01*
X660Y322D02*
X667Y322D01*
X0Y321D02*
X7Y321D01*
X660Y321D02*
X667Y321D01*
X0Y320D02*
X7Y320D01*
X660Y320D02*
X667Y320D01*
X0Y319D02*
X7Y319D01*
X660Y319D02*
X667Y319D01*
X0Y318D02*
X7Y318D01*
X660Y318D02*
X667Y318D01*
X0Y317D02*
X7Y317D01*
X660Y317D02*
X667Y317D01*
X0Y316D02*
X7Y316D01*
X660Y316D02*
X667Y316D01*
X0Y315D02*
X7Y315D01*
X660Y315D02*
X667Y315D01*
X0Y314D02*
X7Y314D01*
X660Y314D02*
X667Y314D01*
X0Y313D02*
X7Y313D01*
X660Y313D02*
X667Y313D01*
X0Y312D02*
X7Y312D01*
X660Y312D02*
X667Y312D01*
X0Y311D02*
X7Y311D01*
X660Y311D02*
X667Y311D01*
X0Y310D02*
X7Y310D01*
X660Y310D02*
X667Y310D01*
X0Y309D02*
X7Y309D01*
X660Y309D02*
X667Y309D01*
X0Y308D02*
X7Y308D01*
X660Y308D02*
X667Y308D01*
X0Y307D02*
X7Y307D01*
X660Y307D02*
X667Y307D01*
X0Y306D02*
X7Y306D01*
X660Y306D02*
X667Y306D01*
X0Y305D02*
X7Y305D01*
X660Y305D02*
X667Y305D01*
X0Y304D02*
X7Y304D01*
X660Y304D02*
X667Y304D01*
X0Y303D02*
X7Y303D01*
X660Y303D02*
X667Y303D01*
X0Y302D02*
X7Y302D01*
X660Y302D02*
X667Y302D01*
X0Y301D02*
X7Y301D01*
X660Y301D02*
X667Y301D01*
X0Y300D02*
X7Y300D01*
X660Y300D02*
X667Y300D01*
X0Y299D02*
X7Y299D01*
X660Y299D02*
X667Y299D01*
X0Y298D02*
X7Y298D01*
X660Y298D02*
X667Y298D01*
X0Y297D02*
X7Y297D01*
X660Y297D02*
X667Y297D01*
X0Y296D02*
X7Y296D01*
X660Y296D02*
X667Y296D01*
X0Y295D02*
X7Y295D01*
X660Y295D02*
X667Y295D01*
X0Y294D02*
X7Y294D01*
X13Y294D02*
X75Y294D01*
X98Y294D02*
X160Y294D01*
X660Y294D02*
X667Y294D01*
X0Y293D02*
X7Y293D01*
X13Y293D02*
X75Y293D01*
X98Y293D02*
X160Y293D01*
X660Y293D02*
X667Y293D01*
X0Y292D02*
X7Y292D01*
X13Y292D02*
X75Y292D01*
X98Y292D02*
X160Y292D01*
X660Y292D02*
X667Y292D01*
X0Y291D02*
X7Y291D01*
X13Y291D02*
X15Y291D01*
X73Y291D02*
X75Y291D01*
X98Y291D02*
X100Y291D01*
X158Y291D02*
X160Y291D01*
X660Y291D02*
X667Y291D01*
X0Y290D02*
X7Y290D01*
X13Y290D02*
X15Y290D01*
X73Y290D02*
X75Y290D01*
X98Y290D02*
X100Y290D01*
X158Y290D02*
X160Y290D01*
X660Y290D02*
X667Y290D01*
X0Y289D02*
X7Y289D01*
X13Y289D02*
X15Y289D01*
X73Y289D02*
X75Y289D01*
X98Y289D02*
X100Y289D01*
X158Y289D02*
X160Y289D01*
X660Y289D02*
X667Y289D01*
X0Y288D02*
X7Y288D01*
X13Y288D02*
X15Y288D01*
X73Y288D02*
X75Y288D01*
X98Y288D02*
X100Y288D01*
X158Y288D02*
X160Y288D01*
X660Y288D02*
X667Y288D01*
X0Y287D02*
X7Y287D01*
X13Y287D02*
X15Y287D01*
X73Y287D02*
X75Y287D01*
X98Y287D02*
X100Y287D01*
X158Y287D02*
X160Y287D01*
X660Y287D02*
X667Y287D01*
X0Y286D02*
X7Y286D01*
X13Y286D02*
X15Y286D01*
X73Y286D02*
X75Y286D01*
X98Y286D02*
X100Y286D01*
X158Y286D02*
X160Y286D01*
X660Y286D02*
X667Y286D01*
X0Y285D02*
X7Y285D01*
X13Y285D02*
X15Y285D01*
X73Y285D02*
X75Y285D01*
X98Y285D02*
X100Y285D01*
X158Y285D02*
X160Y285D01*
X660Y285D02*
X667Y285D01*
X0Y284D02*
X7Y284D01*
X13Y284D02*
X15Y284D01*
X73Y284D02*
X75Y284D01*
X98Y284D02*
X100Y284D01*
X158Y284D02*
X160Y284D01*
X660Y284D02*
X667Y284D01*
X0Y283D02*
X7Y283D01*
X13Y283D02*
X15Y283D01*
X73Y283D02*
X75Y283D01*
X98Y283D02*
X100Y283D01*
X158Y283D02*
X160Y283D01*
X660Y283D02*
X667Y283D01*
X0Y282D02*
X7Y282D01*
X13Y282D02*
X15Y282D01*
X73Y282D02*
X75Y282D01*
X98Y282D02*
X100Y282D01*
X158Y282D02*
X160Y282D01*
X660Y282D02*
X667Y282D01*
X0Y281D02*
X7Y281D01*
X13Y281D02*
X15Y281D01*
X73Y281D02*
X75Y281D01*
X98Y281D02*
X100Y281D01*
X158Y281D02*
X160Y281D01*
X660Y281D02*
X667Y281D01*
X0Y280D02*
X7Y280D01*
X13Y280D02*
X15Y280D01*
X73Y280D02*
X75Y280D01*
X98Y280D02*
X100Y280D01*
X158Y280D02*
X160Y280D01*
X660Y280D02*
X667Y280D01*
X0Y279D02*
X7Y279D01*
X13Y279D02*
X15Y279D01*
X73Y279D02*
X75Y279D01*
X98Y279D02*
X100Y279D01*
X158Y279D02*
X160Y279D01*
X660Y279D02*
X667Y279D01*
X0Y278D02*
X7Y278D01*
X13Y278D02*
X15Y278D01*
X73Y278D02*
X75Y278D01*
X98Y278D02*
X100Y278D01*
X158Y278D02*
X160Y278D01*
X660Y278D02*
X667Y278D01*
X0Y277D02*
X7Y277D01*
X13Y277D02*
X15Y277D01*
X73Y277D02*
X75Y277D01*
X98Y277D02*
X100Y277D01*
X158Y277D02*
X160Y277D01*
X660Y277D02*
X667Y277D01*
X0Y276D02*
X7Y276D01*
X13Y276D02*
X15Y276D01*
X73Y276D02*
X75Y276D01*
X98Y276D02*
X100Y276D01*
X158Y276D02*
X160Y276D01*
X660Y276D02*
X667Y276D01*
X0Y275D02*
X7Y275D01*
X13Y275D02*
X15Y275D01*
X73Y275D02*
X75Y275D01*
X98Y275D02*
X100Y275D01*
X158Y275D02*
X160Y275D01*
X660Y275D02*
X667Y275D01*
X0Y274D02*
X7Y274D01*
X13Y274D02*
X15Y274D01*
X73Y274D02*
X75Y274D01*
X98Y274D02*
X100Y274D01*
X158Y274D02*
X160Y274D01*
X660Y274D02*
X667Y274D01*
X0Y273D02*
X7Y273D01*
X13Y273D02*
X15Y273D01*
X73Y273D02*
X75Y273D01*
X98Y273D02*
X100Y273D01*
X158Y273D02*
X160Y273D01*
X660Y273D02*
X667Y273D01*
X0Y272D02*
X7Y272D01*
X13Y272D02*
X15Y272D01*
X73Y272D02*
X75Y272D01*
X98Y272D02*
X100Y272D01*
X158Y272D02*
X160Y272D01*
X660Y272D02*
X667Y272D01*
X0Y271D02*
X7Y271D01*
X13Y271D02*
X15Y271D01*
X73Y271D02*
X75Y271D01*
X98Y271D02*
X100Y271D01*
X158Y271D02*
X160Y271D01*
X660Y271D02*
X667Y271D01*
X0Y270D02*
X7Y270D01*
X13Y270D02*
X15Y270D01*
X73Y270D02*
X75Y270D01*
X98Y270D02*
X100Y270D01*
X158Y270D02*
X160Y270D01*
X660Y270D02*
X667Y270D01*
X0Y269D02*
X7Y269D01*
X13Y269D02*
X15Y269D01*
X73Y269D02*
X75Y269D01*
X98Y269D02*
X100Y269D01*
X158Y269D02*
X160Y269D01*
X660Y269D02*
X667Y269D01*
X0Y268D02*
X7Y268D01*
X13Y268D02*
X15Y268D01*
X73Y268D02*
X75Y268D01*
X98Y268D02*
X100Y268D01*
X158Y268D02*
X160Y268D01*
X660Y268D02*
X667Y268D01*
X0Y267D02*
X7Y267D01*
X13Y267D02*
X15Y267D01*
X73Y267D02*
X75Y267D01*
X98Y267D02*
X100Y267D01*
X158Y267D02*
X160Y267D01*
X660Y267D02*
X667Y267D01*
X0Y266D02*
X7Y266D01*
X13Y266D02*
X15Y266D01*
X73Y266D02*
X75Y266D01*
X98Y266D02*
X100Y266D01*
X158Y266D02*
X160Y266D01*
X660Y266D02*
X667Y266D01*
X0Y265D02*
X7Y265D01*
X13Y265D02*
X15Y265D01*
X73Y265D02*
X75Y265D01*
X98Y265D02*
X100Y265D01*
X158Y265D02*
X160Y265D01*
X660Y265D02*
X667Y265D01*
X0Y264D02*
X7Y264D01*
X13Y264D02*
X15Y264D01*
X73Y264D02*
X75Y264D01*
X98Y264D02*
X100Y264D01*
X158Y264D02*
X160Y264D01*
X660Y264D02*
X667Y264D01*
X0Y263D02*
X7Y263D01*
X13Y263D02*
X15Y263D01*
X73Y263D02*
X75Y263D01*
X87Y263D02*
X100Y263D01*
X158Y263D02*
X172Y263D01*
X660Y263D02*
X667Y263D01*
X0Y262D02*
X15Y262D01*
X73Y262D02*
X100Y262D01*
X158Y262D02*
X172Y262D01*
X660Y262D02*
X667Y262D01*
X0Y261D02*
X15Y261D01*
X73Y261D02*
X100Y261D01*
X158Y261D02*
X172Y261D01*
X660Y261D02*
X667Y261D01*
X0Y260D02*
X15Y260D01*
X73Y260D02*
X100Y260D01*
X158Y260D02*
X172Y260D01*
X660Y260D02*
X667Y260D01*
X0Y259D02*
X15Y259D01*
X73Y259D02*
X90Y259D01*
X169Y259D02*
X172Y259D01*
X660Y259D02*
X667Y259D01*
X0Y258D02*
X7Y258D01*
X84Y258D02*
X89Y258D01*
X169Y258D02*
X172Y258D01*
X660Y258D02*
X667Y258D01*
X0Y257D02*
X7Y257D01*
X84Y257D02*
X89Y257D01*
X169Y257D02*
X172Y257D01*
X660Y257D02*
X667Y257D01*
X0Y256D02*
X7Y256D01*
X84Y256D02*
X89Y256D01*
X169Y256D02*
X172Y256D01*
X660Y256D02*
X667Y256D01*
X0Y255D02*
X7Y255D01*
X84Y255D02*
X89Y255D01*
X169Y255D02*
X172Y255D01*
X660Y255D02*
X667Y255D01*
X0Y254D02*
X7Y254D01*
X84Y254D02*
X89Y254D01*
X169Y254D02*
X172Y254D01*
X660Y254D02*
X667Y254D01*
X0Y253D02*
X7Y253D01*
X84Y253D02*
X89Y253D01*
X169Y253D02*
X172Y253D01*
X660Y253D02*
X667Y253D01*
X0Y252D02*
X7Y252D01*
X84Y252D02*
X89Y252D01*
X169Y252D02*
X172Y252D01*
X660Y252D02*
X667Y252D01*
X0Y251D02*
X7Y251D01*
X84Y251D02*
X89Y251D01*
X91Y251D02*
X100Y251D01*
X158Y251D02*
X172Y251D01*
X660Y251D02*
X667Y251D01*
X0Y250D02*
X7Y250D01*
X84Y250D02*
X100Y250D01*
X158Y250D02*
X172Y250D01*
X660Y250D02*
X667Y250D01*
X0Y249D02*
X7Y249D01*
X84Y249D02*
X100Y249D01*
X158Y249D02*
X172Y249D01*
X660Y249D02*
X667Y249D01*
X0Y248D02*
X7Y248D01*
X84Y248D02*
X100Y248D01*
X158Y248D02*
X172Y248D01*
X660Y248D02*
X667Y248D01*
X0Y247D02*
X7Y247D01*
X84Y247D02*
X100Y247D01*
X158Y247D02*
X172Y247D01*
X660Y247D02*
X667Y247D01*
X0Y246D02*
X7Y246D01*
X84Y246D02*
X100Y246D01*
X158Y246D02*
X172Y246D01*
X660Y246D02*
X667Y246D01*
X0Y245D02*
X7Y245D01*
X84Y245D02*
X100Y245D01*
X158Y245D02*
X172Y245D01*
X660Y245D02*
X667Y245D01*
X0Y244D02*
X7Y244D01*
X84Y244D02*
X100Y244D01*
X158Y244D02*
X172Y244D01*
X660Y244D02*
X667Y244D01*
X0Y243D02*
X7Y243D01*
X84Y243D02*
X100Y243D01*
X158Y243D02*
X172Y243D01*
X660Y243D02*
X667Y243D01*
X0Y242D02*
X7Y242D01*
X84Y242D02*
X100Y242D01*
X158Y242D02*
X172Y242D01*
X660Y242D02*
X667Y242D01*
X0Y241D02*
X7Y241D01*
X84Y241D02*
X100Y241D01*
X158Y241D02*
X172Y241D01*
X660Y241D02*
X667Y241D01*
X0Y240D02*
X7Y240D01*
X84Y240D02*
X100Y240D01*
X158Y240D02*
X172Y240D01*
X660Y240D02*
X667Y240D01*
X0Y239D02*
X7Y239D01*
X84Y239D02*
X100Y239D01*
X158Y239D02*
X172Y239D01*
X660Y239D02*
X667Y239D01*
X0Y238D02*
X7Y238D01*
X84Y238D02*
X100Y238D01*
X158Y238D02*
X172Y238D01*
X660Y238D02*
X667Y238D01*
X0Y237D02*
X7Y237D01*
X84Y237D02*
X100Y237D01*
X158Y237D02*
X172Y237D01*
X660Y237D02*
X667Y237D01*
X0Y236D02*
X7Y236D01*
X84Y236D02*
X100Y236D01*
X158Y236D02*
X172Y236D01*
X660Y236D02*
X667Y236D01*
X0Y235D02*
X7Y235D01*
X84Y235D02*
X100Y235D01*
X158Y235D02*
X172Y235D01*
X660Y235D02*
X667Y235D01*
X0Y234D02*
X7Y234D01*
X84Y234D02*
X100Y234D01*
X158Y234D02*
X172Y234D01*
X660Y234D02*
X667Y234D01*
X0Y233D02*
X7Y233D01*
X84Y233D02*
X100Y233D01*
X158Y233D02*
X172Y233D01*
X660Y233D02*
X667Y233D01*
X0Y232D02*
X7Y232D01*
X84Y232D02*
X100Y232D01*
X158Y232D02*
X172Y232D01*
X660Y232D02*
X667Y232D01*
X0Y231D02*
X7Y231D01*
X84Y231D02*
X89Y231D01*
X169Y231D02*
X172Y231D01*
X660Y231D02*
X667Y231D01*
X0Y230D02*
X7Y230D01*
X84Y230D02*
X89Y230D01*
X169Y230D02*
X172Y230D01*
X660Y230D02*
X667Y230D01*
X0Y229D02*
X7Y229D01*
X84Y229D02*
X89Y229D01*
X169Y229D02*
X172Y229D01*
X660Y229D02*
X667Y229D01*
X0Y228D02*
X7Y228D01*
X84Y228D02*
X89Y228D01*
X169Y228D02*
X172Y228D01*
X660Y228D02*
X667Y228D01*
X0Y227D02*
X7Y227D01*
X84Y227D02*
X89Y227D01*
X169Y227D02*
X172Y227D01*
X660Y227D02*
X667Y227D01*
X0Y226D02*
X7Y226D01*
X84Y226D02*
X89Y226D01*
X169Y226D02*
X172Y226D01*
X660Y226D02*
X667Y226D01*
X0Y225D02*
X7Y225D01*
X84Y225D02*
X89Y225D01*
X169Y225D02*
X172Y225D01*
X660Y225D02*
X667Y225D01*
X0Y224D02*
X7Y224D01*
X84Y224D02*
X89Y224D01*
X169Y224D02*
X172Y224D01*
X660Y224D02*
X667Y224D01*
X0Y223D02*
X7Y223D01*
X84Y223D02*
X89Y223D01*
X169Y223D02*
X172Y223D01*
X660Y223D02*
X667Y223D01*
X0Y222D02*
X7Y222D01*
X84Y222D02*
X89Y222D01*
X169Y222D02*
X172Y222D01*
X660Y222D02*
X667Y222D01*
X0Y221D02*
X7Y221D01*
X84Y221D02*
X89Y221D01*
X169Y221D02*
X172Y221D01*
X660Y221D02*
X667Y221D01*
X0Y220D02*
X7Y220D01*
X84Y220D02*
X89Y220D01*
X169Y220D02*
X172Y220D01*
X660Y220D02*
X667Y220D01*
X0Y219D02*
X7Y219D01*
X84Y219D02*
X89Y219D01*
X169Y219D02*
X172Y219D01*
X660Y219D02*
X667Y219D01*
X0Y218D02*
X7Y218D01*
X84Y218D02*
X89Y218D01*
X169Y218D02*
X172Y218D01*
X660Y218D02*
X667Y218D01*
X0Y217D02*
X7Y217D01*
X84Y217D02*
X89Y217D01*
X169Y217D02*
X172Y217D01*
X660Y217D02*
X667Y217D01*
X0Y216D02*
X7Y216D01*
X84Y216D02*
X89Y216D01*
X169Y216D02*
X172Y216D01*
X660Y216D02*
X667Y216D01*
X0Y215D02*
X7Y215D01*
X84Y215D02*
X89Y215D01*
X169Y215D02*
X172Y215D01*
X660Y215D02*
X667Y215D01*
X0Y214D02*
X7Y214D01*
X84Y214D02*
X89Y214D01*
X169Y214D02*
X172Y214D01*
X660Y214D02*
X667Y214D01*
X0Y213D02*
X7Y213D01*
X84Y213D02*
X89Y213D01*
X169Y213D02*
X172Y213D01*
X660Y213D02*
X667Y213D01*
X0Y212D02*
X7Y212D01*
X84Y212D02*
X89Y212D01*
X169Y212D02*
X172Y212D01*
X660Y212D02*
X667Y212D01*
X0Y211D02*
X7Y211D01*
X84Y211D02*
X89Y211D01*
X169Y211D02*
X172Y211D01*
X660Y211D02*
X667Y211D01*
X0Y210D02*
X7Y210D01*
X84Y210D02*
X89Y210D01*
X169Y210D02*
X172Y210D01*
X660Y210D02*
X667Y210D01*
X0Y209D02*
X7Y209D01*
X84Y209D02*
X89Y209D01*
X169Y209D02*
X172Y209D01*
X660Y209D02*
X667Y209D01*
X0Y208D02*
X7Y208D01*
X84Y208D02*
X89Y208D01*
X169Y208D02*
X172Y208D01*
X660Y208D02*
X667Y208D01*
X0Y207D02*
X7Y207D01*
X84Y207D02*
X89Y207D01*
X169Y207D02*
X172Y207D01*
X660Y207D02*
X667Y207D01*
X0Y206D02*
X7Y206D01*
X84Y206D02*
X89Y206D01*
X169Y206D02*
X172Y206D01*
X660Y206D02*
X667Y206D01*
X0Y205D02*
X7Y205D01*
X84Y205D02*
X89Y205D01*
X169Y205D02*
X172Y205D01*
X660Y205D02*
X667Y205D01*
X0Y204D02*
X7Y204D01*
X84Y204D02*
X89Y204D01*
X169Y204D02*
X172Y204D01*
X660Y204D02*
X667Y204D01*
X0Y203D02*
X7Y203D01*
X84Y203D02*
X89Y203D01*
X169Y203D02*
X172Y203D01*
X660Y203D02*
X667Y203D01*
X0Y202D02*
X7Y202D01*
X84Y202D02*
X89Y202D01*
X169Y202D02*
X172Y202D01*
X660Y202D02*
X667Y202D01*
X0Y201D02*
X7Y201D01*
X84Y201D02*
X89Y201D01*
X169Y201D02*
X172Y201D01*
X660Y201D02*
X667Y201D01*
X0Y200D02*
X7Y200D01*
X84Y200D02*
X89Y200D01*
X169Y200D02*
X172Y200D01*
X660Y200D02*
X667Y200D01*
X0Y199D02*
X7Y199D01*
X84Y199D02*
X89Y199D01*
X169Y199D02*
X172Y199D01*
X660Y199D02*
X667Y199D01*
X0Y198D02*
X7Y198D01*
X84Y198D02*
X89Y198D01*
X169Y198D02*
X172Y198D01*
X660Y198D02*
X667Y198D01*
X0Y197D02*
X7Y197D01*
X84Y197D02*
X89Y197D01*
X169Y197D02*
X172Y197D01*
X660Y197D02*
X667Y197D01*
X0Y196D02*
X7Y196D01*
X84Y196D02*
X89Y196D01*
X169Y196D02*
X172Y196D01*
X660Y196D02*
X667Y196D01*
X0Y195D02*
X7Y195D01*
X84Y195D02*
X89Y195D01*
X169Y195D02*
X172Y195D01*
X660Y195D02*
X667Y195D01*
X0Y194D02*
X7Y194D01*
X84Y194D02*
X89Y194D01*
X169Y194D02*
X172Y194D01*
X660Y194D02*
X667Y194D01*
X0Y193D02*
X7Y193D01*
X84Y193D02*
X89Y193D01*
X169Y193D02*
X172Y193D01*
X660Y193D02*
X667Y193D01*
X0Y192D02*
X7Y192D01*
X84Y192D02*
X89Y192D01*
X169Y192D02*
X172Y192D01*
X660Y192D02*
X667Y192D01*
X0Y191D02*
X7Y191D01*
X84Y191D02*
X89Y191D01*
X169Y191D02*
X172Y191D01*
X660Y191D02*
X667Y191D01*
X0Y190D02*
X7Y190D01*
X84Y190D02*
X89Y190D01*
X169Y190D02*
X172Y190D01*
X660Y190D02*
X667Y190D01*
X0Y189D02*
X7Y189D01*
X84Y189D02*
X89Y189D01*
X169Y189D02*
X172Y189D01*
X660Y189D02*
X667Y189D01*
X0Y188D02*
X7Y188D01*
X84Y188D02*
X89Y188D01*
X169Y188D02*
X172Y188D01*
X660Y188D02*
X667Y188D01*
X0Y187D02*
X7Y187D01*
X84Y187D02*
X89Y187D01*
X169Y187D02*
X172Y187D01*
X660Y187D02*
X667Y187D01*
X0Y186D02*
X7Y186D01*
X84Y186D02*
X89Y186D01*
X169Y186D02*
X172Y186D01*
X660Y186D02*
X667Y186D01*
X0Y185D02*
X7Y185D01*
X84Y185D02*
X89Y185D01*
X169Y185D02*
X172Y185D01*
X660Y185D02*
X667Y185D01*
X0Y184D02*
X7Y184D01*
X84Y184D02*
X89Y184D01*
X169Y184D02*
X172Y184D01*
X660Y184D02*
X667Y184D01*
X0Y183D02*
X7Y183D01*
X84Y183D02*
X89Y183D01*
X169Y183D02*
X172Y183D01*
X660Y183D02*
X667Y183D01*
X0Y182D02*
X7Y182D01*
X84Y182D02*
X89Y182D01*
X169Y182D02*
X172Y182D01*
X660Y182D02*
X667Y182D01*
X0Y181D02*
X7Y181D01*
X84Y181D02*
X89Y181D01*
X169Y181D02*
X172Y181D01*
X660Y181D02*
X667Y181D01*
X0Y180D02*
X7Y180D01*
X84Y180D02*
X89Y180D01*
X169Y180D02*
X172Y180D01*
X660Y180D02*
X667Y180D01*
X0Y179D02*
X7Y179D01*
X84Y179D02*
X89Y179D01*
X169Y179D02*
X172Y179D01*
X660Y179D02*
X667Y179D01*
X0Y178D02*
X7Y178D01*
X84Y178D02*
X89Y178D01*
X169Y178D02*
X172Y178D01*
X660Y178D02*
X667Y178D01*
X0Y177D02*
X7Y177D01*
X84Y177D02*
X89Y177D01*
X169Y177D02*
X172Y177D01*
X660Y177D02*
X667Y177D01*
X0Y176D02*
X7Y176D01*
X84Y176D02*
X89Y176D01*
X169Y176D02*
X172Y176D01*
X660Y176D02*
X667Y176D01*
X0Y175D02*
X7Y175D01*
X84Y175D02*
X89Y175D01*
X169Y175D02*
X172Y175D01*
X660Y175D02*
X667Y175D01*
X0Y174D02*
X7Y174D01*
X84Y174D02*
X89Y174D01*
X169Y174D02*
X172Y174D01*
X660Y174D02*
X667Y174D01*
X0Y173D02*
X7Y173D01*
X84Y173D02*
X89Y173D01*
X169Y173D02*
X172Y173D01*
X660Y173D02*
X667Y173D01*
X0Y172D02*
X7Y172D01*
X84Y172D02*
X89Y172D01*
X169Y172D02*
X172Y172D01*
X660Y172D02*
X667Y172D01*
X0Y171D02*
X7Y171D01*
X84Y171D02*
X89Y171D01*
X169Y171D02*
X172Y171D01*
X660Y171D02*
X667Y171D01*
X0Y170D02*
X7Y170D01*
X84Y170D02*
X89Y170D01*
X169Y170D02*
X172Y170D01*
X660Y170D02*
X667Y170D01*
X0Y169D02*
X7Y169D01*
X84Y169D02*
X89Y169D01*
X169Y169D02*
X172Y169D01*
X660Y169D02*
X667Y169D01*
X0Y168D02*
X7Y168D01*
X84Y168D02*
X89Y168D01*
X169Y168D02*
X172Y168D01*
X660Y168D02*
X667Y168D01*
X0Y167D02*
X7Y167D01*
X84Y167D02*
X89Y167D01*
X169Y167D02*
X172Y167D01*
X660Y167D02*
X667Y167D01*
X0Y166D02*
X7Y166D01*
X84Y166D02*
X89Y166D01*
X169Y166D02*
X172Y166D01*
X660Y166D02*
X667Y166D01*
X0Y165D02*
X7Y165D01*
X84Y165D02*
X89Y165D01*
X169Y165D02*
X172Y165D01*
X660Y165D02*
X667Y165D01*
X0Y164D02*
X7Y164D01*
X84Y164D02*
X89Y164D01*
X169Y164D02*
X172Y164D01*
X660Y164D02*
X667Y164D01*
X0Y163D02*
X7Y163D01*
X84Y163D02*
X89Y163D01*
X169Y163D02*
X172Y163D01*
X660Y163D02*
X667Y163D01*
X0Y162D02*
X7Y162D01*
X84Y162D02*
X89Y162D01*
X169Y162D02*
X172Y162D01*
X660Y162D02*
X667Y162D01*
X0Y161D02*
X7Y161D01*
X84Y161D02*
X89Y161D01*
X169Y161D02*
X172Y161D01*
X660Y161D02*
X667Y161D01*
X0Y160D02*
X7Y160D01*
X84Y160D02*
X89Y160D01*
X169Y160D02*
X172Y160D01*
X660Y160D02*
X667Y160D01*
X0Y159D02*
X7Y159D01*
X84Y159D02*
X89Y159D01*
X169Y159D02*
X172Y159D01*
X660Y159D02*
X667Y159D01*
X0Y158D02*
X7Y158D01*
X84Y158D02*
X89Y158D01*
X169Y158D02*
X172Y158D01*
X660Y158D02*
X667Y158D01*
X0Y157D02*
X7Y157D01*
X84Y157D02*
X89Y157D01*
X169Y157D02*
X172Y157D01*
X660Y157D02*
X667Y157D01*
X0Y156D02*
X7Y156D01*
X84Y156D02*
X89Y156D01*
X169Y156D02*
X172Y156D01*
X660Y156D02*
X667Y156D01*
X0Y155D02*
X7Y155D01*
X84Y155D02*
X89Y155D01*
X169Y155D02*
X172Y155D01*
X660Y155D02*
X667Y155D01*
X0Y154D02*
X7Y154D01*
X84Y154D02*
X89Y154D01*
X169Y154D02*
X172Y154D01*
X660Y154D02*
X667Y154D01*
X0Y153D02*
X7Y153D01*
X84Y153D02*
X89Y153D01*
X169Y153D02*
X172Y153D01*
X660Y153D02*
X667Y153D01*
X0Y152D02*
X15Y152D01*
X73Y152D02*
X89Y152D01*
X169Y152D02*
X172Y152D01*
X660Y152D02*
X667Y152D01*
X0Y151D02*
X15Y151D01*
X73Y151D02*
X89Y151D01*
X169Y151D02*
X172Y151D01*
X660Y151D02*
X667Y151D01*
X0Y150D02*
X15Y150D01*
X73Y150D02*
X89Y150D01*
X169Y150D02*
X172Y150D01*
X660Y150D02*
X667Y150D01*
X0Y149D02*
X15Y149D01*
X73Y149D02*
X89Y149D01*
X169Y149D02*
X172Y149D01*
X660Y149D02*
X667Y149D01*
X0Y148D02*
X15Y148D01*
X73Y148D02*
X89Y148D01*
X169Y148D02*
X172Y148D01*
X660Y148D02*
X667Y148D01*
X0Y147D02*
X15Y147D01*
X73Y147D02*
X89Y147D01*
X169Y147D02*
X172Y147D01*
X660Y147D02*
X667Y147D01*
X0Y146D02*
X15Y146D01*
X73Y146D02*
X89Y146D01*
X169Y146D02*
X172Y146D01*
X660Y146D02*
X667Y146D01*
X0Y145D02*
X15Y145D01*
X73Y145D02*
X89Y145D01*
X169Y145D02*
X172Y145D01*
X660Y145D02*
X667Y145D01*
X0Y144D02*
X15Y144D01*
X73Y144D02*
X89Y144D01*
X169Y144D02*
X172Y144D01*
X660Y144D02*
X667Y144D01*
X0Y143D02*
X15Y143D01*
X73Y143D02*
X89Y143D01*
X169Y143D02*
X172Y143D01*
X660Y143D02*
X667Y143D01*
X0Y142D02*
X15Y142D01*
X73Y142D02*
X89Y142D01*
X169Y142D02*
X172Y142D01*
X660Y142D02*
X667Y142D01*
X0Y141D02*
X15Y141D01*
X73Y141D02*
X89Y141D01*
X169Y141D02*
X172Y141D01*
X660Y141D02*
X667Y141D01*
X0Y140D02*
X15Y140D01*
X73Y140D02*
X89Y140D01*
X169Y140D02*
X172Y140D01*
X660Y140D02*
X667Y140D01*
X0Y139D02*
X15Y139D01*
X73Y139D02*
X89Y139D01*
X169Y139D02*
X172Y139D01*
X660Y139D02*
X667Y139D01*
X0Y138D02*
X15Y138D01*
X73Y138D02*
X89Y138D01*
X169Y138D02*
X172Y138D01*
X660Y138D02*
X667Y138D01*
X0Y137D02*
X15Y137D01*
X73Y137D02*
X89Y137D01*
X169Y137D02*
X172Y137D01*
X660Y137D02*
X667Y137D01*
X0Y136D02*
X15Y136D01*
X73Y136D02*
X89Y136D01*
X169Y136D02*
X172Y136D01*
X660Y136D02*
X667Y136D01*
X0Y135D02*
X15Y135D01*
X73Y135D02*
X89Y135D01*
X169Y135D02*
X172Y135D01*
X660Y135D02*
X667Y135D01*
X0Y134D02*
X15Y134D01*
X73Y134D02*
X89Y134D01*
X169Y134D02*
X172Y134D01*
X660Y134D02*
X667Y134D01*
X0Y133D02*
X15Y133D01*
X73Y133D02*
X82Y133D01*
X84Y133D02*
X89Y133D01*
X169Y133D02*
X172Y133D01*
X660Y133D02*
X667Y133D01*
X0Y132D02*
X7Y132D01*
X84Y132D02*
X89Y132D01*
X169Y132D02*
X172Y132D01*
X660Y132D02*
X667Y132D01*
X0Y131D02*
X7Y131D01*
X84Y131D02*
X89Y131D01*
X169Y131D02*
X172Y131D01*
X660Y131D02*
X667Y131D01*
X0Y130D02*
X7Y130D01*
X84Y130D02*
X89Y130D01*
X169Y130D02*
X172Y130D01*
X660Y130D02*
X667Y130D01*
X0Y129D02*
X7Y129D01*
X84Y129D02*
X89Y129D01*
X169Y129D02*
X172Y129D01*
X660Y129D02*
X667Y129D01*
X0Y128D02*
X7Y128D01*
X84Y128D02*
X89Y128D01*
X169Y128D02*
X172Y128D01*
X660Y128D02*
X667Y128D01*
X0Y127D02*
X7Y127D01*
X84Y127D02*
X89Y127D01*
X169Y127D02*
X172Y127D01*
X660Y127D02*
X667Y127D01*
X0Y126D02*
X7Y126D01*
X84Y126D02*
X89Y126D01*
X169Y126D02*
X172Y126D01*
X660Y126D02*
X667Y126D01*
X0Y125D02*
X15Y125D01*
X73Y125D02*
X100Y125D01*
X158Y125D02*
X172Y125D01*
X660Y125D02*
X667Y125D01*
X0Y124D02*
X15Y124D01*
X73Y124D02*
X100Y124D01*
X158Y124D02*
X172Y124D01*
X660Y124D02*
X667Y124D01*
X0Y123D02*
X15Y123D01*
X73Y123D02*
X100Y123D01*
X158Y123D02*
X172Y123D01*
X660Y123D02*
X667Y123D01*
X0Y122D02*
X15Y122D01*
X73Y122D02*
X100Y122D01*
X158Y122D02*
X172Y122D01*
X660Y122D02*
X667Y122D01*
X0Y121D02*
X7Y121D01*
X13Y121D02*
X15Y121D01*
X73Y121D02*
X75Y121D01*
X84Y121D02*
X84Y121D01*
X98Y121D02*
X100Y121D01*
X158Y121D02*
X160Y121D01*
X660Y121D02*
X667Y121D01*
X0Y120D02*
X7Y120D01*
X13Y120D02*
X15Y120D01*
X73Y120D02*
X75Y120D01*
X98Y120D02*
X100Y120D01*
X158Y120D02*
X160Y120D01*
X660Y120D02*
X667Y120D01*
X0Y119D02*
X7Y119D01*
X13Y119D02*
X15Y119D01*
X73Y119D02*
X75Y119D01*
X98Y119D02*
X100Y119D01*
X158Y119D02*
X160Y119D01*
X660Y119D02*
X667Y119D01*
X0Y118D02*
X7Y118D01*
X13Y118D02*
X15Y118D01*
X73Y118D02*
X75Y118D01*
X98Y118D02*
X100Y118D01*
X158Y118D02*
X160Y118D01*
X660Y118D02*
X667Y118D01*
X0Y117D02*
X7Y117D01*
X13Y117D02*
X15Y117D01*
X73Y117D02*
X75Y117D01*
X98Y117D02*
X100Y117D01*
X158Y117D02*
X160Y117D01*
X660Y117D02*
X667Y117D01*
X0Y116D02*
X7Y116D01*
X13Y116D02*
X15Y116D01*
X73Y116D02*
X75Y116D01*
X98Y116D02*
X100Y116D01*
X158Y116D02*
X160Y116D01*
X660Y116D02*
X667Y116D01*
X0Y115D02*
X7Y115D01*
X13Y115D02*
X15Y115D01*
X73Y115D02*
X75Y115D01*
X98Y115D02*
X100Y115D01*
X158Y115D02*
X160Y115D01*
X660Y115D02*
X667Y115D01*
X0Y114D02*
X7Y114D01*
X13Y114D02*
X15Y114D01*
X73Y114D02*
X75Y114D01*
X98Y114D02*
X100Y114D01*
X158Y114D02*
X160Y114D01*
X660Y114D02*
X667Y114D01*
X0Y113D02*
X7Y113D01*
X13Y113D02*
X15Y113D01*
X73Y113D02*
X75Y113D01*
X98Y113D02*
X100Y113D01*
X158Y113D02*
X160Y113D01*
X660Y113D02*
X667Y113D01*
X0Y112D02*
X7Y112D01*
X13Y112D02*
X15Y112D01*
X73Y112D02*
X75Y112D01*
X98Y112D02*
X100Y112D01*
X158Y112D02*
X160Y112D01*
X660Y112D02*
X667Y112D01*
X0Y111D02*
X7Y111D01*
X13Y111D02*
X15Y111D01*
X73Y111D02*
X75Y111D01*
X98Y111D02*
X100Y111D01*
X158Y111D02*
X160Y111D01*
X660Y111D02*
X667Y111D01*
X0Y110D02*
X7Y110D01*
X13Y110D02*
X15Y110D01*
X73Y110D02*
X75Y110D01*
X98Y110D02*
X100Y110D01*
X158Y110D02*
X160Y110D01*
X660Y110D02*
X667Y110D01*
X0Y109D02*
X7Y109D01*
X13Y109D02*
X15Y109D01*
X158Y109D02*
X160Y109D01*
X660Y109D02*
X667Y109D01*
X0Y108D02*
X7Y108D01*
X13Y108D02*
X15Y108D01*
X158Y108D02*
X160Y108D01*
X660Y108D02*
X667Y108D01*
X0Y107D02*
X7Y107D01*
X13Y107D02*
X15Y107D01*
X158Y107D02*
X160Y107D01*
X660Y107D02*
X667Y107D01*
X0Y106D02*
X7Y106D01*
X13Y106D02*
X15Y106D01*
X158Y106D02*
X160Y106D01*
X660Y106D02*
X667Y106D01*
X0Y105D02*
X7Y105D01*
X13Y105D02*
X15Y105D01*
X158Y105D02*
X160Y105D01*
X660Y105D02*
X667Y105D01*
X0Y104D02*
X7Y104D01*
X13Y104D02*
X15Y104D01*
X158Y104D02*
X160Y104D01*
X660Y104D02*
X667Y104D01*
X0Y103D02*
X7Y103D01*
X13Y103D02*
X15Y103D01*
X158Y103D02*
X160Y103D01*
X660Y103D02*
X667Y103D01*
X0Y102D02*
X7Y102D01*
X13Y102D02*
X15Y102D01*
X158Y102D02*
X160Y102D01*
X660Y102D02*
X667Y102D01*
X0Y101D02*
X7Y101D01*
X13Y101D02*
X15Y101D01*
X158Y101D02*
X160Y101D01*
X660Y101D02*
X667Y101D01*
X0Y100D02*
X7Y100D01*
X13Y100D02*
X15Y100D01*
X158Y100D02*
X160Y100D01*
X660Y100D02*
X667Y100D01*
X0Y99D02*
X7Y99D01*
X13Y99D02*
X15Y99D01*
X158Y99D02*
X160Y99D01*
X660Y99D02*
X667Y99D01*
X0Y98D02*
X7Y98D01*
X13Y98D02*
X15Y98D01*
X158Y98D02*
X160Y98D01*
X660Y98D02*
X667Y98D01*
X0Y97D02*
X7Y97D01*
X13Y97D02*
X15Y97D01*
X158Y97D02*
X160Y97D01*
X660Y97D02*
X667Y97D01*
X0Y96D02*
X7Y96D01*
X13Y96D02*
X15Y96D01*
X158Y96D02*
X160Y96D01*
X660Y96D02*
X667Y96D01*
X0Y95D02*
X7Y95D01*
X13Y95D02*
X15Y95D01*
X158Y95D02*
X160Y95D01*
X660Y95D02*
X667Y95D01*
X0Y94D02*
X7Y94D01*
X13Y94D02*
X15Y94D01*
X158Y94D02*
X160Y94D01*
X660Y94D02*
X667Y94D01*
X0Y93D02*
X7Y93D01*
X13Y93D02*
X15Y93D01*
X158Y93D02*
X160Y93D01*
X660Y93D02*
X667Y93D01*
X0Y92D02*
X7Y92D01*
X13Y92D02*
X61Y92D01*
X111Y92D02*
X160Y92D01*
X660Y92D02*
X667Y92D01*
X0Y91D02*
X7Y91D01*
X13Y91D02*
X61Y91D01*
X111Y91D02*
X160Y91D01*
X660Y91D02*
X667Y91D01*
X0Y90D02*
X7Y90D01*
X13Y90D02*
X61Y90D01*
X660Y90D02*
X667Y90D01*
X0Y89D02*
X7Y89D01*
X660Y89D02*
X667Y89D01*
X0Y88D02*
X7Y88D01*
X660Y88D02*
X667Y88D01*
X0Y87D02*
X7Y87D01*
X660Y87D02*
X667Y87D01*
X0Y86D02*
X7Y86D01*
X660Y86D02*
X667Y86D01*
X0Y85D02*
X7Y85D01*
X660Y85D02*
X667Y85D01*
X0Y84D02*
X7Y84D01*
X660Y84D02*
X667Y84D01*
X0Y83D02*
X7Y83D01*
X660Y83D02*
X667Y83D01*
X0Y82D02*
X7Y82D01*
X660Y82D02*
X667Y82D01*
X0Y81D02*
X7Y81D01*
X660Y81D02*
X667Y81D01*
X0Y80D02*
X7Y80D01*
X660Y80D02*
X667Y80D01*
X0Y79D02*
X7Y79D01*
X660Y79D02*
X667Y79D01*
X0Y78D02*
X7Y78D01*
X660Y78D02*
X667Y78D01*
X0Y77D02*
X7Y77D01*
X660Y77D02*
X667Y77D01*
X0Y76D02*
X7Y76D01*
X660Y76D02*
X667Y76D01*
X0Y75D02*
X7Y75D01*
X660Y75D02*
X667Y75D01*
X0Y74D02*
X7Y74D01*
X660Y74D02*
X667Y74D01*
X0Y73D02*
X7Y73D01*
X660Y73D02*
X667Y73D01*
X0Y72D02*
X7Y72D01*
X660Y72D02*
X667Y72D01*
X0Y71D02*
X7Y71D01*
X660Y71D02*
X667Y71D01*
X0Y70D02*
X7Y70D01*
X660Y70D02*
X667Y70D01*
X0Y69D02*
X7Y69D01*
X660Y69D02*
X667Y69D01*
X0Y68D02*
X7Y68D01*
X660Y68D02*
X667Y68D01*
X0Y67D02*
X7Y67D01*
X660Y67D02*
X667Y67D01*
X0Y66D02*
X7Y66D01*
X660Y66D02*
X667Y66D01*
X0Y65D02*
X7Y65D01*
X660Y65D02*
X667Y65D01*
X0Y64D02*
X7Y64D01*
X660Y64D02*
X667Y64D01*
X0Y63D02*
X7Y63D01*
X660Y63D02*
X667Y63D01*
X0Y62D02*
X7Y62D01*
X660Y62D02*
X667Y62D01*
X0Y61D02*
X7Y61D01*
X660Y61D02*
X667Y61D01*
X0Y60D02*
X7Y60D01*
X660Y60D02*
X667Y60D01*
X0Y59D02*
X7Y59D01*
X660Y59D02*
X667Y59D01*
X0Y58D02*
X7Y58D01*
X660Y58D02*
X667Y58D01*
X0Y57D02*
X7Y57D01*
X660Y57D02*
X667Y57D01*
X0Y56D02*
X7Y56D01*
X660Y56D02*
X667Y56D01*
X0Y55D02*
X7Y55D01*
X660Y55D02*
X667Y55D01*
X0Y54D02*
X7Y54D01*
X660Y54D02*
X667Y54D01*
X0Y53D02*
X7Y53D01*
X660Y53D02*
X667Y53D01*
X0Y52D02*
X7Y52D01*
X660Y52D02*
X667Y52D01*
X0Y51D02*
X7Y51D01*
X660Y51D02*
X667Y51D01*
X0Y50D02*
X7Y50D01*
X660Y50D02*
X667Y50D01*
X0Y49D02*
X7Y49D01*
X660Y49D02*
X667Y49D01*
X0Y48D02*
X7Y48D01*
X660Y48D02*
X667Y48D01*
X0Y47D02*
X7Y47D01*
X660Y47D02*
X667Y47D01*
X0Y46D02*
X7Y46D01*
X660Y46D02*
X667Y46D01*
X0Y45D02*
X7Y45D01*
X660Y45D02*
X667Y45D01*
X0Y44D02*
X7Y44D01*
X660Y44D02*
X667Y44D01*
X0Y43D02*
X7Y43D01*
X660Y43D02*
X667Y43D01*
X0Y42D02*
X7Y42D01*
X660Y42D02*
X667Y42D01*
X0Y41D02*
X7Y41D01*
X660Y41D02*
X667Y41D01*
X0Y40D02*
X7Y40D01*
X660Y40D02*
X667Y40D01*
X0Y39D02*
X7Y39D01*
X660Y39D02*
X667Y39D01*
X0Y38D02*
X7Y38D01*
X660Y38D02*
X667Y38D01*
X0Y37D02*
X7Y37D01*
X660Y37D02*
X667Y37D01*
X0Y36D02*
X7Y36D01*
X660Y36D02*
X667Y36D01*
X0Y35D02*
X7Y35D01*
X660Y35D02*
X667Y35D01*
X0Y34D02*
X7Y34D01*
X660Y34D02*
X667Y34D01*
X0Y33D02*
X7Y33D01*
X660Y33D02*
X667Y33D01*
X0Y32D02*
X7Y32D01*
X660Y32D02*
X667Y32D01*
X0Y31D02*
X7Y31D01*
X660Y31D02*
X667Y31D01*
X0Y30D02*
X7Y30D01*
X660Y30D02*
X667Y30D01*
X0Y29D02*
X7Y29D01*
X660Y29D02*
X667Y29D01*
X0Y28D02*
X7Y28D01*
X660Y28D02*
X667Y28D01*
X0Y27D02*
X7Y27D01*
X660Y27D02*
X667Y27D01*
X0Y26D02*
X7Y26D01*
X660Y26D02*
X667Y26D01*
X0Y25D02*
X7Y25D01*
X660Y25D02*
X667Y25D01*
X0Y24D02*
X7Y24D01*
X660Y24D02*
X667Y24D01*
X0Y23D02*
X7Y23D01*
X660Y23D02*
X667Y23D01*
X0Y22D02*
X7Y22D01*
X660Y22D02*
X667Y22D01*
X0Y21D02*
X7Y21D01*
X660Y21D02*
X667Y21D01*
X0Y20D02*
X7Y20D01*
X660Y20D02*
X667Y20D01*
X0Y19D02*
X7Y19D01*
X660Y19D02*
X667Y19D01*
X0Y18D02*
X7Y18D01*
X660Y18D02*
X667Y18D01*
X0Y17D02*
X7Y17D01*
X660Y17D02*
X667Y17D01*
X0Y16D02*
X7Y16D01*
X660Y16D02*
X667Y16D01*
X0Y15D02*
X7Y15D01*
X660Y15D02*
X667Y15D01*
X0Y14D02*
X7Y14D01*
X660Y14D02*
X667Y14D01*
X0Y13D02*
X7Y13D01*
X660Y13D02*
X667Y13D01*
X0Y12D02*
X7Y12D01*
X660Y12D02*
X667Y12D01*
X0Y11D02*
X7Y11D01*
X660Y11D02*
X667Y11D01*
X0Y10D02*
X7Y10D01*
X660Y10D02*
X667Y10D01*
X0Y9D02*
X667Y9D01*
X0Y8D02*
X667Y8D01*
X0Y7D02*
X667Y7D01*
X0Y6D02*
X667Y6D01*
X0Y5D02*
X667Y5D01*
X0Y4D02*
X667Y4D01*
X0Y3D02*
X667Y3D01*
X0Y2D02*
X667Y2D01*
D02*
G04 End of Silk0*
M02*